<svg id="Layer_1" enable-background="new 0 0 512 512" height="512" viewBox="0 0 512 512" width="512" xmlns="http://www.w3.org/2000/svg"><g><g><g fill="#ffe150"><path d="m351.329 461.376c-1.618-3.813-6.019-5.59-9.834-3.973-3.813 1.619-5.592 6.021-3.973 9.834l8.676 20.438c1.212 2.856 3.988 4.571 6.907 4.571.977 0 1.971-.192 2.927-.598 3.813-1.619 5.592-6.021 3.973-9.834z"/><path d="m165.812 24.324c-1.618-3.813-6.02-5.591-9.834-3.974-3.813 1.618-5.592 6.021-3.974 9.834l8.675 20.438c1.212 2.857 3.988 4.572 6.907 4.572.977 0 1.971-.192 2.927-.598 3.813-1.618 5.592-6.021 3.974-9.834z"/><path d="m44.767 337.517-20.438 8.676c-3.813 1.619-5.592 6.021-3.973 9.834 1.212 2.856 3.988 4.571 6.907 4.571.977 0 1.971-.192 2.927-.598l20.438-8.676c3.813-1.619 5.592-6.021 3.973-9.834-1.618-3.812-6.019-5.591-9.834-3.973z"/><path d="m464.314 175.081c.977 0 1.971-.192 2.927-.598l20.438-8.676c3.813-1.619 5.592-6.021 3.973-9.834-1.618-3.813-6.019-5.59-9.834-3.973l-20.438 8.676c-3.813 1.619-5.592 6.021-3.973 9.834 1.213 2.856 3.988 4.571 6.907 4.571z"/><path d="m170.512 457.399c-3.812-1.617-8.216.161-9.834 3.973l-8.676 20.438c-1.619 3.813.161 8.216 3.973 9.834.957.406 1.95.598 2.927.598 2.919 0 5.695-1.715 6.907-4.571l8.676-20.438c1.619-3.813-.16-8.215-3.973-9.834z"/><path d="m341.493 54.593c.957.406 1.95.598 2.927.598 2.919 0 5.695-1.715 6.907-4.571l8.676-20.438c1.619-3.813-.161-8.216-3.973-9.834-3.813-1.617-8.216.161-9.834 3.973l-8.676 20.438c-1.619 3.812.16 8.215 3.973 9.834z"/><path d="m487.679 346.189-20.438-8.676c-3.812-1.617-8.215.161-9.834 3.973-1.619 3.813.161 8.216 3.973 9.834l20.438 8.676c.957.406 1.95.598 2.927.598 2.919 0 5.695-1.715 6.907-4.571 1.619-3.813-.161-8.215-3.973-9.834z"/><path d="m24.327 165.803 20.439 8.675c.957.406 1.949.598 2.927.598 2.919 0 5.695-1.715 6.907-4.572 1.619-3.813-.161-8.216-3.974-9.834l-20.439-8.675c-3.811-1.619-8.215.161-9.834 3.974s.161 8.216 3.974 9.834z"/></g><path d="m256.004 453.819c-4.142 0-7.5 3.358-7.5 7.5v43.181c0 4.142 3.358 7.5 7.5 7.5s7.5-3.358 7.5-7.5v-43.181c0-4.142-3.358-7.5-7.5-7.5z" fill="#ffc552"/><path d="m256.004 0c-4.142 0-7.5 3.358-7.5 7.5v43.181c0 4.142 3.358 7.5 7.5 7.5s7.5-3.358 7.5-7.5v-43.181c0-4.142-3.358-7.5-7.5-7.5z" fill="#ffc552"/><path d="m50.681 248.496h-43.181c-4.142 0-7.5 3.358-7.5 7.5s3.358 7.5 7.5 7.5h43.181c4.142 0 7.5-3.358 7.5-7.5s-3.358-7.5-7.5-7.5z" fill="#ffc552"/><path d="m504.5 248.496h-43.181c-4.142 0-7.5 3.358-7.5 7.5s3.358 7.5 7.5 7.5h43.181c4.142 0 7.5-3.358 7.5-7.5s-3.358-7.5-7.5-7.5z" fill="#ffc552"/><path d="m105.518 395.875-30.533 30.533c-2.929 2.929-2.929 7.678 0 10.606 1.464 1.464 3.384 2.197 5.303 2.197s3.839-.732 5.303-2.197l30.533-30.533c2.929-2.929 2.929-7.678 0-10.606-2.928-2.929-7.677-2.929-10.606 0z" fill="#ffc552"/><path d="m426.417 74.976-30.533 30.533c-2.929 2.929-2.929 7.678 0 10.606 1.464 1.464 3.384 2.197 5.303 2.197s3.839-.732 5.303-2.197l30.533-30.533c2.929-2.929 2.929-7.678 0-10.606-2.928-2.929-7.677-2.929-10.606 0z" fill="#ffc552"/><path d="m85.591 74.97c-2.929-2.929-7.678-2.929-10.606 0-2.929 2.929-2.929 7.678 0 10.606l30.533 30.533c1.464 1.464 3.384 2.197 5.303 2.197s3.839-.732 5.303-2.197c2.929-2.929 2.929-7.678 0-10.606z" fill="#ffc552"/><path d="m406.49 395.869c-2.929-2.929-7.678-2.929-10.606 0-2.929 2.929-2.929 7.678 0 10.606l30.533 30.533c1.464 1.464 3.384 2.197 5.303 2.197s3.839-.732 5.303-2.197c2.929-2.929 2.929-7.678 0-10.606z" fill="#ffc552"/></g><path d="m428.59 256c0 95.32-77.27 172.59-172.59 172.59-5.41 0-10.76-.25-16.04-.74-87.79-8.09-156.54-81.94-156.54-171.85s68.75-163.76 156.54-171.85c5.28-.49 10.63-.74 16.04-.74 95.32 0 172.59 77.27 172.59 172.59z" fill="#ffff4d"/><path d="m428.59 256c0 95.32-77.27 172.59-172.59 172.59-5.41 0-10.76-.25-16.04-.74 85.96-10.1 152.63-83.19 152.63-171.85s-66.67-161.75-152.63-171.85c5.28-.49 10.63-.74 16.04-.74 95.32 0 172.59 77.27 172.59 172.59z" fill="#ffe150"/><path d="m348.76 256c0 51.23-41.53 92.76-92.76 92.76-1.72 0-3.43-.05-5.12-.14-48.85-2.66-87.63-43.11-87.63-92.62s38.78-89.96 87.63-92.62c1.69-.09 3.4-.14 5.12-.14 51.23 0 92.76 41.53 92.76 92.76z" fill="#ffe150"/><path d="m348.76 256c0 51.23-41.53 92.76-92.76 92.76-1.72 0-3.43-.05-5.12-.14 36.33-15.05 61.88-50.85 61.88-92.62s-25.55-77.57-61.88-92.62c1.69-.09 3.4-.14 5.12-.14 51.23 0 92.76 41.53 92.76 92.76z" fill="#ffc552"/></g></svg>