<svg xmlns="http://www.w3.org/2000/svg" width="818" height="616" viewBox="0 0 818 616">
<g>
<path d="M 425.00 282.95 C416.81,284.25 413.03,284.17 405.46,282.53 C389.64,279.08 372.81,266.78 371.32,257.56 C370.84,254.63 371.23,253.62 373.80,251.05 C378.04,246.81 380.81,247.12 387.17,252.57 C390.10,255.08 396.28,259.01 400.90,261.30 C407.95,264.80 410.47,265.54 416.58,265.84 C421.52,266.09 425.43,265.68 428.81,264.56 C435.62,262.30 444.98,255.53 449.84,249.34 C456.86,240.42 460.55,239.07 465.81,243.50 C472.09,248.78 470.91,253.43 460.70,263.81 C449.69,274.99 439.00,280.72 425.00,282.95 ZM 432.46 110.45 C426.84,113.12 418.49,113.41 412.18,111.16 C397.28,105.84 393.08,91.42 401.31,73.77 C409.38,56.45 424.06,43.30 426.55,51.15 C427.11,52.91 426.11,54.35 421.23,58.90 C407.53,71.68 401.38,88.55 407.03,97.82 C409.86,102.45 416.74,105.38 423.34,104.74 C427.40,104.35 428.93,103.64 431.19,101.11 C434.42,97.50 434.70,94.54 432.31,89.53 C430.14,84.98 425.83,84.53 423.80,88.66 C421.97,92.40 419.57,93.72 417.58,92.07 C415.14,90.04 415.70,85.71 419.01,81.15 C421.83,77.25 422.31,77.00 426.97,77.00 C431.07,77.00 432.53,77.53 435.40,80.05 C444.84,88.34 443.20,105.36 432.46,110.45 ZM 475.03 187.42 C472.03,190.49 468.97,193.00 468.24,193.00 C466.44,193.00 462.00,188.45 462.00,186.61 C462.00,180.88 469.61,172.37 478.25,168.42 C486.82,164.51 497.31,163.94 506.21,166.90 C514.41,169.63 522.77,175.25 523.61,178.59 C524.46,181.97 522.64,185.75 519.49,187.19 C517.32,188.18 516.54,188.02 514.22,186.16 C498.99,173.95 487.89,174.30 475.03,187.42 ZM 328.03 188.42 C325.03,191.49 321.84,194.00 320.96,194.00 C318.67,194.00 315.00,189.78 315.00,187.14 C315.00,181.67 323.37,172.54 331.78,168.81 C339.06,165.59 351.11,165.20 359.14,167.91 C366.22,170.31 372.32,174.17 375.23,178.09 C377.01,180.49 377.04,180.96 375.67,184.25 C373.74,188.86 370.63,189.90 367.13,187.12 C351.92,174.99 340.83,175.36 328.03,188.42 ZM 253.50 368.95 C248.12,371.30 243.51,371.89 237.45,371.01 C230.41,369.98 228.00,368.26 228.00,364.28 C228.00,360.29 230.42,359.41 237.21,360.94 C241.08,361.80 242.95,361.64 248.36,359.97 C253.69,358.32 255.38,357.25 257.81,353.95 C259.43,351.74 261.33,347.81 262.03,345.22 C263.76,338.81 265.42,337.02 268.81,337.92 C271.16,338.54 271.54,339.20 271.80,343.12 C271.99,345.98 271.36,349.32 270.09,352.29 C267.71,357.85 259.09,366.50 253.50,368.95 ZM 626.29 302.35 C620.25,303.35 611.80,302.97 607.87,301.52 C596.93,297.50 589.46,288.41 587.54,276.79 C587.05,273.85 587.35,272.65 588.96,271.04 C592.75,267.25 594.82,268.54 596.91,276.00 C598.82,282.80 602.55,288.56 606.74,291.16 C610.09,293.24 611.62,293.49 620.76,293.38 C630.66,293.26 631.05,293.33 631.60,295.53 C632.49,299.11 630.51,301.65 626.29,302.35 ZM 260.44 308.75 C257.87,314.53 255.63,315.47 253.82,311.50 C252.22,307.99 254.34,301.46 258.40,297.40 C264.88,290.92 281.00,289.90 281.00,295.98 C281.00,298.70 279.26,299.45 272.84,299.49 C266.01,299.53 263.79,301.19 260.44,308.75 ZM 192.22 343.22 C191.78,344.92 190.48,346.93 189.33,347.70 C187.50,348.91 187.01,348.87 185.52,347.38 C182.12,343.98 186.15,334.17 192.46,330.47 C200.82,325.57 215.86,327.31 212.35,332.77 C211.48,334.13 210.09,334.44 205.87,334.20 C201.11,333.94 200.08,334.26 196.76,337.02 C194.71,338.73 192.66,341.52 192.22,343.22 ZM 677.01 288.99 C676.41,290.09 675.60,291.00 675.19,291.00 C673.25,291.00 670.21,287.78 669.69,285.18 C669.37,283.58 667.92,280.87 666.46,279.14 C663.98,276.19 663.42,276.00 657.03,276.00 C652.00,276.00 649.90,275.58 648.90,274.39 C645.38,270.14 659.10,266.91 665.80,270.41 C672.37,273.84 679.12,285.04 677.01,288.99 ZM 615.49 241.02 C615.15,241.56 613.80,242.00 612.48,242.00 C610.53,242.00 609.88,241.26 609.02,238.09 C608.39,235.75 606.56,232.94 604.45,231.09 C601.31,228.33 600.25,228.00 594.57,228.00 C589.54,228.00 588.08,227.65 587.57,226.32 C586.54,223.64 589.47,221.71 595.27,221.23 C601.74,220.69 607.56,223.23 611.35,228.24 C613.99,231.73 616.48,239.42 615.49,241.02 Z" fill="rgb(103,82,72)"/>
<path d="M 439.50 445.47 C411.66,450.33 382.67,446.37 358.90,434.47 C323.78,416.89 306.52,383.57 317.46,354.50 C321.24,344.46 333.30,327.00 336.46,327.00 C337.16,327.00 338.49,328.99 339.42,331.42 C344.08,343.64 357.71,351.78 382.50,357.19 C386.64,358.09 397.16,358.49 416.50,358.49 C446.54,358.49 452.34,357.81 467.24,352.57 C480.48,347.91 490.54,339.88 493.23,331.80 C494.00,329.51 495.09,327.47 495.65,327.28 C497.85,326.55 507.75,338.64 512.29,347.58 C526.59,375.80 515.91,407.01 484.72,428.19 C473.27,435.96 455.85,442.62 439.50,445.47 ZM 702.08 208.91 C699.10,211.71 696.62,213.99 696.58,213.97 C696.38,213.90 678.53,201.52 670.00,195.52 C662.91,190.54 654.00,183.84 654.00,183.48 C654.00,183.33 655.30,180.57 656.89,177.35 C660.98,169.06 665.62,154.41 668.39,141.00 C669.69,134.68 671.22,128.38 671.78,127.00 C675.70,117.41 685.77,110.29 693.86,111.39 C699.29,112.14 701.65,114.10 703.15,119.09 C703.99,121.92 703.98,124.03 703.09,127.58 C702.43,130.17 702.26,132.66 702.70,133.10 C703.14,133.54 707.75,127.81 712.94,120.38 C722.69,106.41 726.21,102.66 731.72,100.35 C738.27,97.60 745.52,99.46 747.81,104.47 C749.56,108.32 749.22,116.92 747.14,121.50 C746.13,123.70 741.84,130.38 737.59,136.35 C733.34,142.32 729.62,147.83 729.32,148.60 C728.64,150.39 730.36,150.38 733.81,148.60 C738.01,146.43 745.11,145.75 748.00,147.24 C754.30,150.49 755.44,160.25 750.63,169.74 C747.57,175.79 742.45,180.49 732.88,186.05 C723.90,191.26 709.42,202.01 702.08,208.91 ZM 186.85 263.59 C176.41,267.27 176.06,267.27 170.31,263.71 C158.90,256.65 138.00,238.19 138.00,235.16 C138.00,234.62 141.26,233.62 145.25,232.94 C150.88,231.97 154.83,231.95 162.93,232.84 C168.66,233.47 173.56,233.77 173.81,233.52 C174.07,233.27 173.35,230.91 172.23,228.28 C167.57,217.35 164.69,200.34 166.37,193.65 C166.95,191.36 167.31,191.17 169.53,192.01 C176.61,194.70 192.08,209.40 196.13,217.29 C197.20,219.37 198.49,220.81 199.00,220.50 C199.51,220.18 201.55,216.85 203.52,213.08 C208.09,204.39 217.41,193.00 219.95,193.00 C221.45,193.00 222.09,194.13 222.95,198.26 C224.77,207.01 225.87,223.57 225.28,233.38 L 224.73 242.63 L 219.11 246.30 C216.03,248.33 210.80,252.46 207.50,255.49 C202.51,260.07 200.88,261.00 197.85,261.00 C195.84,261.00 190.89,262.17 186.85,263.59 ZM 438.50 469.58 C427.56,471.26 404.57,471.23 393.00,469.53 C352.20,463.52 314.91,439.51 299.75,409.50 C296.20,402.48 292.00,390.57 292.00,387.52 C292.00,386.36 291.51,384.91 290.91,384.31 C290.13,383.53 291.08,380.68 294.27,374.14 C296.72,369.14 299.00,365.34 299.36,365.69 C299.71,366.04 300.00,369.14 300.00,372.58 C300.00,402.49 320.80,431.61 353.50,447.49 C363.37,452.29 379.84,457.62 391.00,459.62 C410.06,463.06 439.90,461.47 456.50,456.15 C490.47,445.27 511.09,429.69 525.07,404.35 L 528.46 398.19 L 532.23 400.12 C534.30,401.18 536.00,402.30 536.00,402.62 C536.00,404.85 526.88,419.96 522.12,425.61 C502.60,448.79 473.16,464.27 438.50,469.58 ZM 46.47 407.58 C33.96,412.80 16.00,403.56 16.00,391.89 C16.00,384.39 28.03,376.00 38.82,376.00 C45.34,376.00 47.33,376.96 52.77,382.74 L 57.03 387.27 L 64.77 386.59 C69.02,386.22 79.70,385.02 88.50,383.94 C113.52,380.86 126.87,380.36 130.75,382.37 C134.70,384.41 136.00,386.74 136.00,391.76 C136.00,394.55 135.34,396.28 133.66,397.85 C129.23,402.01 126.47,402.10 100.67,398.97 C75.71,395.93 61.99,395.29 57.60,396.96 C56.21,397.49 53.91,399.77 52.48,402.04 C50.95,404.46 48.47,406.74 46.47,407.58 ZM 773.50 402.90 C760.89,404.54 748.69,405.08 746.42,404.09 C745.28,403.60 743.03,401.87 741.41,400.26 C736.32,395.17 731.43,395.14 691.00,400.00 C670.80,402.43 665.64,402.49 661.99,400.33 C653.91,395.56 656.05,384.65 665.58,381.98 C671.35,380.36 687.82,381.49 716.84,385.48 C726.92,386.87 735.58,388.00 736.08,388.00 C736.58,388.00 738.68,386.49 740.75,384.64 C742.81,382.80 745.70,381.07 747.16,380.80 C751.35,380.03 777.18,381.70 780.41,382.95 C785.64,384.97 781.84,385.93 767.48,386.22 C755.84,386.45 753.50,386.75 753.50,388.00 C753.50,389.24 755.96,389.59 767.67,390.00 C775.46,390.27 782.18,390.85 782.60,391.27 C784.81,393.48 780.25,394.52 766.90,394.85 C754.52,395.15 752.93,395.39 753.21,396.85 C753.48,398.26 755.63,398.59 768.01,399.10 C780.20,399.60 782.95,399.68 783.04,400.20 C783.06,400.35 782.87,400.53 782.61,400.77 C782.56,400.82 782.51,400.87 782.45,400.93 C781.93,401.44 777.90,402.33 773.50,402.90 ZM 408.02 420.25 C412.94,425.31 415.25,427.00 417.29,427.00 C421.29,427.00 427.35,420.19 431.88,410.61 C437.30,399.13 437.75,397.88 438.98,391.11 C439.90,386.05 439.82,384.56 438.51,382.03 C437.18,379.44 436.38,379.00 433.05,379.00 C428.30,379.00 424.57,381.87 419.93,389.11 L 416.65 394.21 L 414.71 390.36 C411.35,383.67 408.16,381.00 403.54,381.00 C401.29,381.00 398.48,381.68 397.30,382.50 C394.38,384.55 392.63,390.30 393.43,395.28 C394.50,401.98 400.90,412.93 408.02,420.25 ZM 439.79 343.96 C428.49,345.17 401.82,345.13 391.01,343.87 C381.48,342.77 366.73,338.57 361.28,335.41 C358.97,334.06 355.93,331.46 354.53,329.63 C352.00,326.31 351.19,323.00 352.91,323.00 C353.42,323.00 358.97,325.01 365.25,327.47 C379.63,333.09 390.28,335.03 410.50,335.71 C432.38,336.45 447.20,334.49 465.26,328.49 C472.69,326.02 479.04,324.00 479.38,324.00 C479.72,324.00 480.00,324.89 480.00,325.97 C480.00,328.22 474.31,334.27 470.17,336.41 C465.03,339.07 449.60,342.90 439.79,343.96 ZM 532.00 348.50 C531.98,349.60 531.58,351.12 531.09,351.88 C530.47,352.87 529.08,350.83 526.21,344.71 C521.32,334.28 517.60,328.71 509.17,319.22 C503.02,312.30 502.79,311.87 504.60,310.50 C508.81,307.30 510.02,307.59 515.69,313.15 C522.38,319.71 529.77,329.31 531.75,334.00 C532.56,335.92 533.58,337.73 534.02,338.00 C534.46,338.28 534.19,340.30 533.42,342.50 C532.66,344.70 532.02,347.40 532.00,348.50 ZM 308.12 340.75 C304.60,347.67 303.69,346.25 304.50,335.07 L 305.21 325.13 L 313.88 316.07 C318.66,311.08 322.93,307.00 323.38,307.00 C324.79,307.00 330.00,310.39 330.00,311.31 C330.00,311.80 327.25,315.19 323.88,318.85 C317.29,326.02 311.57,333.97 308.12,340.75 Z" fill="rgb(122,200,53)"/>
<path d="M 262.53 557.17 C262.89,559.74 262.77,562.60 262.25,563.52 C261.09,565.59 260.02,555.68 260.01,542.75 L 260.00 534.00 L 257.00 534.00 C254.47,534.00 254.00,533.61 254.00,531.50 C254.00,530.11 253.42,529.00 252.69,529.00 C251.97,529.00 250.51,528.33 249.44,527.50 C247.52,526.02 247.52,525.98 249.44,524.50 C250.51,523.67 251.86,523.01 252.44,523.03 C253.02,523.05 252.71,523.52 251.75,524.08 C248.64,525.89 249.88,527.00 255.00,527.00 C259.62,527.00 261.68,528.25 258.75,529.27 C257.82,529.59 257.94,530.20 259.18,531.60 C260.40,532.98 260.99,536.08 261.36,543.00 C261.64,548.22 262.17,554.60 262.53,557.17 ZM 84.00 534.47 C84.00,535.31 83.78,536.00 83.50,536.00 C83.22,536.00 83.00,535.55 83.00,535.00 C83.00,534.45 81.70,534.00 80.11,534.00 C77.27,534.00 75.38,531.82 76.56,529.91 C76.87,529.41 76.50,529.00 75.75,529.00 C75.00,529.00 73.51,528.33 72.44,527.50 C70.52,526.02 70.52,525.98 72.44,524.50 C75.12,522.43 76.53,522.61 74.38,524.75 C72.71,526.42 72.87,526.51 77.81,526.80 C83.49,527.13 83.77,527.37 81.39,529.76 C79.90,531.24 79.94,531.43 81.89,532.15 C83.05,532.58 84.00,533.63 84.00,534.47 ZM 122.00 571.11 C122.00,572.63 121.56,574.16 121.02,574.49 C120.41,574.86 120.25,574.01 120.59,572.28 C120.99,570.28 120.62,568.98 119.33,567.83 C117.24,565.97 110.81,564.01 106.75,564.01 C105.24,564.00 104.00,563.58 104.00,563.07 C104.00,562.55 105.24,561.98 106.75,561.79 C113.76,560.93 122.00,565.96 122.00,571.11 ZM 585.06 526.72 C583.54,526.33 583.04,526.80 582.80,528.86 L 582.49 531.50 L 581.76 529.00 C580.51,524.72 580.86,523.00 582.98,523.00 C584.26,523.00 585.18,522.11 585.59,520.50 C586.36,517.42 588.39,517.29 590.42,520.19 C592.42,523.04 591.57,523.83 589.01,521.51 C587.03,519.72 587.00,519.75 587.00,523.46 C587.00,526.70 586.73,527.16 585.06,526.72 ZM 299.00 571.13 C299.00,572.64 298.53,574.17 297.96,574.52 C297.28,574.94 297.15,574.25 297.58,572.54 C298.53,568.75 295.82,566.31 289.14,564.94 C280.92,563.26 280.01,562.75 284.00,562.03 C290.88,560.81 299.00,565.73 299.00,571.13 ZM 662.19 588.32 C661.18,589.25 660.09,590.00 659.78,590.00 C658.98,590.00 657.98,587.14 658.10,585.17 C658.16,584.22 658.50,584.56 658.89,585.98 L 659.58 588.45 L 662.50 585.18 L 665.42 581.90 L 666.28 584.20 C667.12,586.44 667.17,586.45 668.56,584.57 C670.44,582.02 671.31,583.06 670.05,586.36 C668.98,589.18 667.14,589.74 665.22,587.82 C664.32,586.92 663.61,587.04 662.19,588.32 ZM 507.08 529.12 C505.41,529.71 502.68,532.03 501.02,534.29 C499.36,536.55 498.00,537.89 498.00,537.27 C498.00,533.51 508.29,526.00 513.46,526.00 C516.66,526.00 516.67,527.05 513.49,529.82 C510.37,532.54 508.67,532.63 509.49,530.03 C510.06,528.23 509.86,528.15 507.08,529.12 ZM 163.78 587.57 C162.87,585.95 162.66,585.97 160.58,587.93 C159.35,589.08 158.05,589.71 157.68,589.34 C156.60,588.26 156.90,584.82 158.01,585.51 C159.43,586.38 163.01,585.10 162.73,583.81 C162.60,583.23 163.06,582.54 163.75,582.29 C164.44,582.04 165.00,582.58 165.00,583.48 C165.00,584.66 165.56,584.96 166.92,584.53 C168.49,584.03 168.73,584.30 168.28,586.04 C167.54,588.88 165.00,589.74 163.78,587.57 ZM 85.65 560.53 C85.95,564.40 86.03,568.67 85.82,570.03 L 85.45 572.50 L 84.78 570.00 C84.41,568.62 83.88,562.33 83.60,556.00 C83.20,546.89 83.30,545.44 84.09,549.00 C84.65,551.47 85.34,556.66 85.65,560.53 ZM 532.08 591.99 C525.40,593.25 524.27,593.25 523.50,591.99 C522.67,590.65 524.22,590.25 532.34,589.69 C540.22,589.14 540.07,590.47 532.08,591.99 ZM 306.00 344.74 C304.62,347.59 303.11,349.94 302.63,349.96 C301.53,350.01 302.86,336.82 304.09,335.55 C304.25,335.38 304.40,335.00 304.54,334.48 L 304.50 335.07 C303.81,344.64 304.38,347.06 306.76,343.22 C306.50,343.73 306.24,344.24 306.00,344.74 ZM 352.13 588.31 C349.91,591.04 348.27,590.28 346.60,585.75 C345.47,582.68 345.28,580.53 345.92,578.00 C346.77,574.60 346.80,574.65 346.90,579.68 C347.01,585.36 348.93,588.34 351.78,587.27 C353.28,586.71 353.33,586.84 352.13,588.31 ZM 226.00 587.88 C226.00,588.91 225.40,590.25 224.67,590.86 C223.18,592.09 219.65,588.90 216.52,583.50 L 214.79 580.50 L 217.39 583.50 C218.82,585.15 219.99,586.84 220.00,587.25 C220.00,587.66 220.90,588.00 222.00,588.00 C223.10,588.00 224.00,587.55 224.00,587.00 C224.00,586.45 224.45,586.00 225.00,586.00 C225.55,586.00 226.00,586.84 226.00,587.88 ZM 348.35 548.23 C348.67,549.46 348.50,550.90 347.97,551.43 C347.34,552.06 347.00,551.88 346.99,550.95 C346.98,550.15 345.85,547.03 344.48,544.00 C342.39,539.41 342.30,538.91 343.96,541.00 C345.06,542.38 345.97,544.06 345.98,544.75 C345.99,545.44 346.40,546.00 346.88,546.00 C347.37,546.00 348.03,547.00 348.35,548.23 ZM 232.13 360.23 C233.92,360.04 236.47,360.00 240.11,360.00 C244.61,360.00 248.96,359.59 251.30,358.97 C250.45,359.30 249.49,359.62 248.36,359.97 C242.95,361.64 241.08,361.80 237.21,360.94 C235.12,360.47 233.44,360.23 232.13,360.23 ZM 525.15 522.68 C526.76,524.61 525.70,525.23 523.52,523.64 C521.69,522.30 522.14,520.00 524.23,520.00 C524.83,520.00 525.04,520.30 524.68,520.66 C524.31,521.02 524.53,521.93 525.15,522.68 ZM 308.57 339.89 C311.47,334.39 315.80,328.20 320.82,322.31 C316.35,327.65 311.90,334.04 308.57,339.89 ZM 253.96 357.71 C256.18,356.15 258.38,353.41 260.04,350.19 C259.33,351.61 258.54,352.95 257.81,353.95 C256.53,355.68 255.46,356.80 253.96,357.71 ZM 228.00 364.10 C228.02,362.59 228.23,361.64 229.17,361.03 C228.39,361.66 228.03,362.67 228.00,364.10 ZM 228.00 364.31 C228.01,365.97 228.43,367.24 229.44,368.22 C228.43,367.24 228.00,365.99 228.00,364.37 ZM 261.38 347.16 C261.65,346.45 261.88,345.74 262.09,345.02 C262.07,345.08 262.05,345.15 262.03,345.22 C261.87,345.81 261.65,346.47 261.38,347.16 Z" fill="rgb(218,68,88)"/>
<path d="M 186.85 263.59 C190.89,262.17 195.84,261.00 197.85,261.00 C200.88,261.00 202.51,260.07 207.50,255.49 C210.80,252.46 216.03,248.33 219.11,246.30 L 224.73 242.63 L 225.13 235.82 C224.97,239.85 225.18,242.00 225.73,242.00 C226.29,242.00 228.72,241.25 231.12,240.34 C236.43,238.33 258.29,237.84 262.09,239.64 C263.42,240.27 266.65,241.55 269.27,242.49 C279.80,246.23 290.09,255.20 296.26,266.00 C301.10,274.49 303.89,288.77 304.71,309.25 C305.03,317.36 305.62,324.00 306.02,324.00 C306.13,324.00 306.47,323.74 306.98,323.28 L 305.21 325.13 L 304.54 334.48 C304.40,335.00 304.25,335.38 304.09,335.55 C302.86,336.82 301.53,350.01 302.63,349.96 C302.94,349.95 303.70,348.94 304.57,347.45 C302.83,351.18 301.57,354.65 300.94,357.60 C300.25,360.83 299.89,364.50 299.85,368.37 C299.73,366.91 299.55,365.89 299.36,365.69 C299.00,365.34 296.72,369.14 294.27,374.14 C291.08,380.68 290.13,383.53 290.91,384.31 C291.05,384.45 291.18,384.63 291.30,384.85 C290.29,384.09 288.09,385.50 284.19,389.20 C277.08,395.93 273.11,398.35 265.50,400.59 C242.95,407.21 210.51,394.85 177.94,367.23 C168.23,358.99 157.44,346.84 153.36,339.52 C150.05,333.60 148.00,324.61 148.00,316.00 C148.00,298.56 155.56,283.26 169.75,272.00 C172.64,269.70 175.00,267.46 175.00,267.01 C175.00,266.78 174.37,266.21 173.37,265.48 C176.66,267.11 178.61,266.49 186.85,263.59 ZM 84.00 534.47 C84.00,533.63 83.05,532.58 81.89,532.15 C79.94,531.43 79.90,531.24 81.39,529.76 C83.77,527.37 83.49,527.13 77.81,526.80 C72.87,526.51 72.71,526.42 74.38,524.75 C75.22,523.92 75.52,523.38 75.41,523.16 C78.21,522.18 82.41,521.13 88.10,519.96 C109.26,515.60 121.85,520.44 124.91,534.10 C126.22,539.94 124.91,544.90 120.81,549.56 C119.12,551.49 118.04,553.37 118.41,553.75 C118.79,554.12 121.21,555.57 123.80,556.96 C129.88,560.25 133.34,566.44 132.67,572.86 C131.90,580.35 127.03,584.84 116.75,587.58 C113.81,588.36 106.89,588.97 101.00,588.96 C91.23,588.94 87.48,588.14 85.89,585.75 C85.55,585.24 84.20,584.29 82.89,583.63 C79.80,582.09 79.18,579.03 81.81,578.34 C84.34,577.68 84.95,573.16 83.89,563.00 C83.46,558.88 83.08,550.66 83.05,544.75 L 83.01 535.15 C83.04,535.63 83.25,536.00 83.50,536.00 C83.78,536.00 84.00,535.31 84.00,534.47 ZM 262.53 557.17 C262.17,554.60 261.64,548.22 261.36,543.00 C260.99,536.08 260.40,532.98 259.18,531.60 C257.94,530.20 257.82,529.59 258.75,529.27 C261.68,528.25 259.62,527.00 255.00,527.00 C249.88,527.00 248.64,525.89 251.75,524.08 C252.41,523.70 252.76,523.36 252.73,523.17 C260.47,520.39 275.97,517.61 282.35,518.45 C293.49,519.93 299.98,525.03 301.86,533.78 C303.17,539.90 302.07,544.38 297.99,549.52 C296.34,551.58 295.00,553.43 295.00,553.62 C295.00,553.81 297.21,555.09 299.91,556.46 C313.14,563.16 313.18,578.38 300.00,585.45 C294.79,588.24 293.77,588.41 280.50,588.73 C266.34,589.08 263.00,588.45 263.00,585.45 C263.00,584.65 262.16,584.00 261.12,584.00 C260.09,584.00 258.69,583.33 258.01,582.51 C256.55,580.75 257.35,578.00 259.34,578.00 C261.41,578.00 261.98,572.37 260.95,561.81 C260.87,560.88 260.78,559.85 260.70,558.75 C261.11,562.59 261.67,564.56 262.25,563.52 C262.77,562.60 262.89,559.74 262.53,557.17 ZM 670.64 584.01 C670.69,582.76 669.87,582.80 668.56,584.57 C667.17,586.45 667.12,586.44 666.28,584.20 L 665.42 581.90 L 662.50 585.18 L 659.58 588.45 L 658.89 585.98 C658.80,585.67 658.72,585.41 658.64,585.21 C658.90,582.94 659.55,579.96 660.57,576.50 C662.03,571.55 663.46,566.70 663.74,565.72 C664.02,564.74 663.46,563.07 662.50,562.00 C661.50,560.89 661.03,559.37 661.40,558.41 C661.75,557.50 661.52,556.13 660.89,555.37 C659.11,553.22 661.65,551.00 665.90,551.00 L 669.55 551.00 L 674.71 540.14 C679.89,529.23 685.84,521.07 691.09,517.68 C693.63,516.04 694.39,515.99 698.60,517.18 C702.92,518.40 703.56,519.02 706.75,525.00 C710.40,531.86 720.00,555.09 720.00,557.08 C720.00,557.73 721.87,563.21 724.15,569.27 C727.60,578.44 728.09,580.62 727.10,582.21 C726.44,583.26 726.14,584.88 726.43,585.81 C726.72,586.74 726.53,588.17 726.01,589.00 C723.88,592.36 718.74,586.09 714.48,574.96 C711.87,568.11 710.80,566.89 709.42,569.13 C708.52,570.59 695.13,569.55 688.36,567.50 C682.39,565.69 678.55,565.60 677.29,567.25 C675.91,569.04 671.76,579.60 670.64,584.01 ZM 225.39 581.74 C224.66,582.90 224.65,584.21 225.35,586.12 C225.24,586.04 225.12,586.00 225.00,586.00 C224.45,586.00 224.00,586.45 224.00,587.00 C224.00,587.55 223.10,588.00 222.00,588.00 C220.90,588.00 220.00,587.66 220.00,587.25 C219.99,586.84 218.82,585.15 217.39,583.50 L 215.04 580.79 C213.30,577.45 211.91,573.92 211.40,571.25 C210.78,568.03 208.76,566.95 207.42,569.13 C206.52,570.59 193.41,569.55 186.59,567.49 C177.82,564.83 176.24,565.27 173.51,571.18 C172.19,574.03 170.31,579.03 169.33,582.30 C169.04,583.25 168.76,584.10 168.48,584.84 C168.46,584.21 168.01,584.18 166.92,584.53 C165.56,584.96 165.00,584.66 165.00,583.48 C165.00,582.58 164.44,582.04 163.75,582.29 C163.06,582.54 162.60,583.23 162.73,583.81 C163.01,585.10 159.43,586.38 158.01,585.51 C157.46,585.16 157.11,585.84 157.02,586.73 C156.94,584.12 157.75,579.74 159.49,574.29 C162.32,565.42 162.59,562.44 160.63,561.69 C159.76,561.36 159.22,559.47 159.17,556.59 C159.07,551.74 159.28,551.55 165.91,550.78 C167.87,550.55 168.91,549.10 171.51,543.00 C175.85,532.82 180.95,525.09 186.67,520.06 C190.93,516.31 191.82,515.93 194.95,516.52 C196.88,516.88 199.20,517.57 200.11,518.06 C202.80,519.50 211.68,538.42 217.43,555.00 C220.39,563.53 223.63,572.65 224.63,575.28 C225.98,578.82 226.18,580.49 225.39,581.74 ZM 507.08 529.12 C509.86,528.15 510.06,528.23 509.49,530.03 C508.67,532.63 510.37,532.54 513.49,529.82 C514.94,528.56 515.73,527.65 515.85,527.04 C515.85,527.48 515.54,528.06 514.84,528.76 C513.95,529.65 514.31,530.17 516.34,530.94 C519.93,532.31 519.70,533.27 515.03,536.36 C509.07,540.30 507.52,543.95 507.51,554.00 C507.50,559.01 508.08,563.94 508.91,566.00 C514.96,581.01 528.61,584.91 538.64,574.50 C543.89,569.04 546.33,561.95 546.38,552.00 C546.42,541.47 542.86,535.04 534.64,530.82 C532.51,529.73 530.55,527.98 530.27,526.92 C529.97,525.76 528.90,525.00 527.57,525.00 C526.94,525.00 526.13,524.82 525.35,524.54 C526.12,524.63 526.19,523.93 525.15,522.68 C524.53,521.93 524.31,521.02 524.68,520.66 C524.97,520.36 524.89,520.11 524.53,520.03 C525.69,519.67 527.28,519.39 529.28,519.23 C539.14,518.41 548.44,524.38 554.20,535.20 C556.26,539.08 556.48,540.85 556.49,553.50 C556.50,567.45 556.49,567.52 553.08,574.31 C549.63,581.19 543.87,587.27 538.16,590.09 C538.28,589.62 536.35,589.41 532.34,589.69 C524.22,590.25 522.67,590.65 523.50,591.99 C523.55,592.08 523.61,592.17 523.67,592.24 C518.97,591.82 514.45,590.46 511.40,588.26 C500.55,580.45 495.00,568.36 495.00,552.54 C495.00,546.62 496.03,541.52 498.03,537.39 C498.24,537.64 499.51,536.35 501.02,534.29 C502.68,532.03 505.41,529.71 507.08,529.12 ZM 585.06 526.72 C586.73,527.16 587.00,526.70 587.00,523.46 C587.00,519.75 587.03,519.72 589.01,521.51 C590.57,522.92 591.49,523.18 591.52,522.53 C592.22,523.96 593.03,525.72 593.81,527.50 C595.49,531.35 599.82,540.72 603.43,548.32 C607.04,555.92 610.00,562.49 610.00,562.92 C610.00,563.91 613.89,567.46 614.38,566.91 C616.61,564.41 624.86,537.03 627.93,521.92 C628.79,517.72 630.03,515.31 632.96,512.17 C635.09,509.88 637.29,508.00 637.84,508.00 C639.33,508.00 640.15,513.01 639.59,518.71 C639.01,524.68 635.36,539.88 633.38,544.63 C632.61,546.48 631.73,550.26 631.42,553.04 C631.11,555.81 628.23,564.48 625.02,572.29 L 619.19 586.50 L 614.19 586.80 L 609.19 587.10 L 606.60 581.61 C605.17,578.59 604.00,575.73 604.00,575.25 C604.00,574.76 600.23,567.53 595.63,559.18 C589.99,548.95 584.96,538.02 582.54,531.07 L 582.80 528.86 C583.04,526.80 583.54,526.33 585.06,526.72 ZM 445.82 587.78 C444.07,589.53 442.22,589.29 441.09,587.17 C438.95,583.18 433.14,544.62 433.05,533.84 L 433.00 528.18 L 424.25 527.54 C412.02,526.63 411.44,526.31 411.47,520.37 L 411.50 515.50 L 441.39 515.79 C468.74,516.05 471.48,516.23 473.64,517.93 C478.85,522.03 474.83,526.42 465.65,526.66 C462.27,526.75 456.24,527.13 452.25,527.50 L 445.00 528.17 L 445.01 531.34 C445.02,535.91 447.58,555.14 449.45,564.68 C450.33,569.19 451.15,575.94 451.28,579.68 C451.49,586.13 451.38,586.50 449.27,586.53 C448.05,586.54 446.49,587.11 445.82,587.78 ZM 352.13 588.31 C353.33,586.84 353.28,586.71 351.78,587.27 C348.93,588.34 347.01,585.36 346.90,579.68 C346.80,574.67 346.77,574.60 345.93,577.96 C346.10,577.09 346.32,576.09 346.59,574.89 C347.62,570.37 348.07,564.75 347.84,559.18 C347.44,549.23 345.07,543.23 336.16,529.62 C330.56,521.07 329.99,519.08 332.91,518.31 C333.96,518.04 335.04,516.96 335.31,515.91 C336.78,510.29 342.75,516.03 352.89,532.82 C355.31,536.82 357.82,539.96 358.47,539.80 C359.68,539.50 363.69,535.08 374.50,522.20 C380.14,515.47 383.06,513.66 384.50,516.00 C384.84,516.55 386.22,517.00 387.56,517.00 C389.58,517.00 390.00,517.50 390.00,519.85 C390.00,524.55 384.10,531.67 367.92,546.54 L 360.33 553.50 L 359.65 562.50 C358.42,578.63 357.11,584.01 353.64,587.18 C353.03,587.73 352.40,588.25 351.80,588.69 C351.91,588.57 352.02,588.45 352.13,588.31 ZM 122.00 571.11 C122.00,565.96 113.76,560.93 106.75,561.79 C105.24,561.98 104.00,562.55 104.00,563.07 C104.00,563.14 104.03,563.22 104.08,563.29 C101.31,562.62 100.05,562.04 99.47,561.06 C98.99,560.24 98.99,559.13 99.00,557.44 C99.00,557.27 99.00,557.09 99.00,556.90 C99.00,551.93 99.04,551.87 103.42,549.93 C109.15,547.40 113.00,542.83 113.00,538.58 C113.00,533.57 110.13,531.63 102.05,531.17 L 95.24 530.79 L 95.69 553.14 C95.95,565.44 96.33,576.06 96.54,576.75 C97.05,578.36 109.39,578.44 114.10,576.86 C117.48,575.72 119.60,574.27 120.51,572.75 C120.28,574.16 120.47,574.83 121.02,574.49 C121.56,574.16 122.00,572.63 122.00,571.11 ZM 299.00 571.13 C299.00,565.73 290.88,560.81 284.00,562.03 C280.92,562.58 280.76,563.01 284.64,563.96 C282.71,563.53 280.90,563.12 279.75,562.84 L 276.00 561.92 L 276.00 556.54 C276.00,551.35 276.11,551.14 279.07,550.48 C282.94,549.63 288.53,544.80 289.77,541.22 C292.21,534.24 286.04,530.09 274.37,530.86 C272.25,531.00 272.25,531.11 272.70,553.25 C272.95,565.49 273.35,576.12 273.59,576.87 C274.33,579.18 291.25,577.95 294.75,575.34 C296.51,574.03 297.49,572.71 297.75,571.46 C297.73,571.81 297.67,572.17 297.58,572.54 C297.15,574.25 297.28,574.94 297.96,574.52 C298.53,574.17 299.00,572.64 299.00,571.13 ZM 253.50 368.95 C259.09,366.50 267.71,357.85 270.09,352.29 C271.36,349.32 271.99,345.98 271.80,343.12 C271.54,339.20 271.16,338.54 268.81,337.92 C265.46,337.03 263.79,338.78 262.09,345.02 L 262.09 345.02 C261.88,345.74 261.65,346.45 261.39,347.16 L 261.38 347.16 C261.01,348.14 260.54,349.18 260.04,350.19 C258.38,353.41 256.18,356.15 253.96,357.71 C253.21,358.17 252.35,358.57 251.30,358.97 C248.96,359.59 244.61,360.00 240.11,360.00 C236.47,360.00 233.92,360.04 232.13,360.23 C230.80,360.24 229.83,360.50 229.17,361.03 C228.23,361.64 228.02,362.59 228.00,364.10 C228.00,364.16 228.00,364.22 228.00,364.28 L 228.00 364.31 L 228.00 364.33 L 228.00 364.37 C228.02,366.00 228.44,367.25 229.44,368.22 C230.85,369.58 233.37,370.41 237.45,371.01 C243.51,371.89 248.12,371.30 253.50,368.95 ZM 695.86 557.49 C703.89,559.09 708.00,559.30 708.00,558.12 C708.00,554.92 698.05,532.76 696.06,531.53 C694.37,530.49 683.00,548.27 683.00,551.95 C683.00,553.59 688.78,556.08 695.86,557.49 ZM 194.48 557.53 C203.21,559.43 206.01,559.36 205.97,557.25 C205.92,554.22 196.58,533.74 194.74,532.59 C193.29,531.70 192.54,532.04 190.53,534.50 C187.70,537.95 181.00,550.23 181.00,551.95 C181.00,553.44 186.87,555.87 194.48,557.53 ZM 260.44 308.75 C263.79,301.19 266.01,299.53 272.84,299.49 C279.26,299.45 281.00,298.70 281.00,295.98 C281.00,289.90 264.88,290.92 258.40,297.40 C254.34,301.46 252.22,307.99 253.82,311.50 C255.63,315.47 257.87,314.53 260.44,308.75 ZM 192.22 343.22 C192.66,341.52 194.71,338.73 196.76,337.02 C200.08,334.26 201.11,333.94 205.87,334.20 C210.09,334.44 211.48,334.13 212.35,332.77 C215.86,327.31 200.82,325.57 192.46,330.47 C186.15,334.17 182.12,343.98 185.52,347.38 C187.01,348.87 187.50,348.91 189.33,347.70 C190.48,346.93 191.78,344.92 192.22,343.22 ZM 162.12 304.37 C165.92,307.03 171.01,302.80 169.32,298.39 C168.56,296.41 164.58,295.62 162.09,296.95 C159.37,298.41 159.38,302.45 162.12,304.37 ZM 218.20 298.80 C218.86,299.46 220.35,300.00 221.50,300.00 C224.18,300.00 226.00,298.18 226.00,295.50 C226.00,292.82 224.18,291.00 221.50,291.00 C217.51,291.00 215.40,295.99 218.20,298.80 ZM 193.00 288.00 C195.31,290.31 195.49,290.35 198.07,288.96 C201.59,287.08 200.06,280.00 196.13,280.00 C194.22,280.00 191.00,282.92 191.00,284.65 C191.00,285.39 191.90,286.90 193.00,288.00 ZM 252.57 257.07 C255.03,259.80 258.44,259.53 259.81,256.51 C261.29,253.27 260.40,251.14 257.23,250.34 C252.32,249.11 249.30,253.46 252.57,257.07 ZM 224.00 272.00 C226.31,274.31 226.49,274.35 229.07,272.96 C231.75,271.53 231.67,266.43 228.93,264.96 C227.33,264.10 226.33,264.21 224.43,265.45 C221.48,267.39 221.35,269.35 224.00,272.00 ZM 85.65 560.53 C85.34,556.66 84.65,551.47 84.09,549.00 C83.30,545.44 83.20,546.89 83.60,556.00 C83.88,562.33 84.41,568.62 84.78,570.00 L 85.45 572.50 L 85.82 570.03 C86.03,568.67 85.95,564.40 85.65,560.53 ZM 348.35 548.23 C348.03,547.00 347.37,546.00 346.88,546.00 C346.40,546.00 345.99,545.44 345.98,544.75 C345.97,544.06 345.06,542.38 343.96,541.00 C342.30,538.91 342.39,539.41 344.48,544.00 C345.85,547.03 346.98,550.15 346.99,550.95 C347.00,551.88 347.34,552.06 347.97,551.43 C348.50,550.90 348.67,549.46 348.35,548.23 ZM 314.06 414.69 C324.43,429.27 339.57,441.23 357.92,449.49 C356.34,448.82 354.86,448.15 353.50,447.49 C336.90,439.43 323.36,427.95 314.06,414.69 ZM 107.37 564.02 C111.43,564.21 117.34,566.06 119.33,567.83 C119.70,568.16 120.00,568.50 120.22,568.87 C118.95,567.24 116.17,565.81 111.95,564.95 C110.20,564.60 108.68,564.29 107.37,564.02 ZM 300.05 375.03 C300.47,381.06 301.55,387.26 303.17,392.88 C301.34,387.04 300.27,381.06 300.05,375.03 ZM 313.45 316.52 L 313.49 316.48 C317.46,312.04 319.83,309.54 321.63,308.38 C319.86,309.98 316.98,312.83 313.88,316.07 ZM 502.30 531.39 C503.70,530.02 505.30,528.87 507.09,527.96 C508.46,527.26 509.79,526.75 510.98,526.43 C508.21,527.26 504.89,529.23 502.30,531.39 ZM 74.57 528.71 C75.03,528.89 75.45,529.00 75.75,529.00 C76.50,529.00 76.87,529.41 76.56,529.91 C76.49,530.02 76.43,530.12 76.39,530.23 C76.06,529.74 75.38,529.18 74.57,528.71 ZM 345.58 580.05 C345.46,581.80 345.79,583.53 346.60,585.75 C347.63,588.56 348.66,589.92 349.81,589.90 C349.64,589.96 349.49,590.00 349.39,590.00 C348.74,590.00 347.49,588.19 346.60,585.97 C345.65,583.58 345.31,582.35 345.58,580.05 ZM 224.31 591.06 C223.43,591.73 222.79,591.42 221.04,589.51 C222.36,590.75 223.52,591.33 224.31,591.06 ZM 163.63 259.11 C155.74,253.36 145.70,244.58 140.86,239.28 C145.59,244.45 155.36,252.99 163.63,259.11 ZM 76.80 532.64 C77.48,533.44 78.67,534.00 80.11,534.00 L 80.00 534.00 C78.35,534.00 76.93,533.55 76.85,533.00 C76.83,532.90 76.82,532.77 76.80,532.64 ZM 252.38 528.97 C252.49,528.99 252.60,529.00 252.69,529.00 C253.42,529.00 254.00,530.11 254.00,531.50 C254.00,532.45 254.09,533.05 254.43,533.42 C254.10,533.08 254.00,532.54 254.00,531.72 C254.00,530.52 253.52,529.67 252.38,528.97 ZM 163.78 587.57 C164.29,588.48 165.03,588.86 165.78,588.78 C165.09,588.97 164.40,588.56 163.67,587.56 C163.16,586.87 162.84,586.49 162.48,586.44 C162.99,586.29 163.28,586.68 163.78,587.57 ZM 658.56 588.23 C658.89,589.20 659.33,589.94 659.73,590.00 C659.72,590.00 659.70,590.00 659.69,590.00 C659.06,590.00 658.69,589.37 658.56,588.23 ZM 523.27 523.44 C522.24,522.62 521.97,521.87 522.42,521.23 C522.25,521.92 522.51,522.77 523.27,523.44 ZM 590.05 519.70 C588.98,518.35 587.93,517.86 587.09,518.20 C587.89,517.81 588.87,518.14 589.76,519.25 C589.83,519.34 589.93,519.50 590.05,519.70 ZM 71.19 526.43 C71.41,526.70 71.83,527.03 72.44,527.50 C72.74,527.73 73.07,527.95 73.41,528.14 C72.17,527.57 71.42,527.00 71.19,526.43 ZM 158.22 589.42 C158.79,589.30 159.66,588.77 160.50,588.00 C159.55,589.03 158.79,589.48 158.22,589.42 ZM 326.76 308.52 C326.85,308.57 326.93,308.62 327.02,308.67 C328.66,309.64 330.00,310.83 330.00,311.31 C330.00,310.80 328.42,309.55 326.76,308.52 ZM 581.06 525.67 C581.02,525.38 581.00,525.12 581.00,524.90 C581.00,523.99 581.39,523.39 582.10,523.13 C581.29,523.43 580.95,524.24 581.06,525.67 ZM 317.41 326.60 C318.53,325.12 319.67,323.68 320.82,322.31 C321.81,321.14 322.84,319.99 323.88,318.85 C321.66,321.26 319.48,323.88 317.41,326.60 ZM 72.61 524.37 C72.55,524.41 72.50,524.46 72.44,524.50 C71.95,524.88 71.58,525.17 71.34,525.41 C71.57,525.07 71.99,524.72 72.61,524.37 ZM 291.50 565.52 C293.46,566.08 294.95,566.78 295.98,567.63 C294.93,566.81 293.43,566.09 291.50,565.52 ZM 662.19 588.32 C663.51,587.14 664.21,586.95 665.02,587.63 C664.08,587.01 663.44,587.20 662.20,588.32 C662.18,588.34 662.17,588.35 662.15,588.36 C662.00,588.50 661.85,588.63 661.70,588.75 C661.86,588.62 662.03,588.47 662.19,588.32 ZM 248.51 526.76 C248.74,526.96 249.05,527.20 249.44,527.50 C249.56,527.59 249.68,527.68 249.80,527.76 C249.24,527.45 248.79,527.10 248.51,526.76 ZM 225.92 588.59 C225.89,589.11 225.71,589.55 225.37,590.00 C225.62,589.57 225.82,589.07 225.92,588.59 ZM 513.34 526.00 C514.04,525.95 514.62,526.00 515.05,526.14 C514.66,526.05 514.13,526.00 513.46,526.00 C513.42,526.00 513.38,526.00 513.34,526.00 ZM 294.77 397.66 C296.23,401.73 298.06,406.17 299.75,409.50 C298.04,406.12 296.22,401.71 294.77,397.66 ZM 138.00 235.16 L 138.00 235.15 C138.00,234.66 140.78,233.77 144.35,233.10 C140.80,233.77 138.02,234.66 138.00,235.16 Z" fill="rgb(235,35,62)"/>
<path d="M 340.83 264.38 C339.14,264.72 334.97,265.00 331.57,265.00 C321.25,265.00 312.11,259.07 307.51,249.39 C305.34,244.82 305.55,234.79 307.92,230.17 C310.56,224.99 317.69,218.67 323.31,216.52 C329.95,213.98 339.63,214.83 345.04,218.41 C355.94,225.62 359.92,241.20 353.90,253.14 C351.57,257.78 344.82,263.59 340.83,264.38 ZM 514.57 264.53 C508.24,266.42 505.69,266.35 499.20,264.10 C488.82,260.52 483.65,252.88 483.56,241.00 C483.51,234.78 483.97,232.55 486.24,227.93 C493.08,214.00 511.50,209.89 523.01,219.74 C538.37,232.88 533.47,258.89 514.57,264.53 ZM 272.52 541.43 C273.21,550.68 273.32,551.00 275.65,551.00 C276.39,551.00 277.14,550.92 277.88,550.78 C276.08,551.32 276.00,552.16 276.00,556.54 L 276.00 559.96 C276.00,558.88 275.33,558.00 274.50,558.00 C273.39,558.00 273.06,559.40 273.01,565.33 C272.89,561.76 272.79,557.60 272.70,553.25 C272.59,547.92 272.51,543.87 272.47,540.79 C272.49,541.00 272.50,541.22 272.52,541.43 ZM 96.00 549.17 C96.00,551.80 96.23,551.98 98.75,551.36 C102.11,550.52 104.99,549.27 107.27,547.73 C106.12,548.56 104.83,549.31 103.42,549.93 C99.04,551.87 99.00,551.93 99.00,556.90 C99.00,557.09 99.00,557.27 99.00,557.44 C98.99,559.13 98.99,560.24 99.47,561.06 C99.69,561.43 100.00,561.74 100.46,562.02 C99.30,561.43 99.00,560.82 99.00,559.96 C99.00,558.88 98.32,558.00 97.50,558.00 C96.38,558.00 96.05,559.42 96.01,565.49 C95.89,561.86 95.79,557.61 95.69,553.14 L 95.41 539.38 C95.74,543.42 96.00,547.70 96.00,549.17 ZM 275.27 577.76 C277.00,577.92 280.01,577.95 283.25,577.79 C284.52,577.73 285.65,577.67 286.64,577.59 C282.41,578.15 277.72,578.28 275.27,577.76 ZM 103.03 577.99 C107.13,577.96 112.04,577.55 114.10,576.86 C111.60,577.70 106.93,578.07 103.03,577.99 ZM 289.77 541.22 C289.42,542.23 288.73,543.33 287.83,544.42 C289.87,541.78 290.85,538.79 289.93,536.31 C289.70,535.71 289.40,535.15 289.02,534.65 C290.38,536.36 290.69,538.59 289.77,541.22 ZM 279.12 550.47 C280.17,550.16 281.20,549.73 282.18,549.19 C281.12,549.81 280.07,550.26 279.12,550.47 ZM 225.41 229.94 C225.54,223.91 225.20,216.36 224.55,209.62 C225.21,216.43 225.55,224.05 225.41,229.94 ZM 280.74 563.07 C281.82,563.33 283.20,563.64 284.64,563.96 C284.88,564.02 285.14,564.08 285.42,564.14 C283.49,563.73 281.96,563.38 280.74,563.07 ZM 110.10 532.89 C108.37,531.92 105.76,531.40 102.05,531.17 C105.75,531.38 108.36,531.90 110.10,532.89 ZM 225.28 233.38 L 225.13 235.82 C225.17,235.01 225.21,234.12 225.28,233.16 C225.34,232.16 225.39,231.08 225.41,229.94 C225.39,231.15 225.34,232.30 225.28,233.38 ZM 274.37 530.86 C275.64,530.78 276.84,530.75 277.97,530.78 C276.30,530.76 274.76,530.82 273.72,530.94 C273.91,530.89 274.13,530.88 274.37,530.86 Z" fill="rgb(227,168,152)"/>
<path d="M 0.00 308.00 L 0.00 0.00 L 409.00 0.00 L 818.00 0.00 L 818.00 308.00 L 818.00 616.00 L 409.00 616.00 L 0.00 616.00 L 0.00 308.00 ZM 537.73 590.30 C543.58,587.57 549.54,581.37 553.08,574.31 C556.49,567.52 556.50,567.45 556.49,553.50 C556.48,540.85 556.26,539.08 554.20,535.20 C548.44,524.38 539.14,518.41 529.28,519.23 C522.83,519.76 520.56,521.44 523.44,523.57 C524.51,524.36 526.37,525.00 527.57,525.00 C528.90,525.00 529.97,525.76 530.27,526.92 C530.55,527.98 532.51,529.73 534.64,530.82 C542.86,535.04 546.42,541.47 546.38,552.00 C546.33,561.95 543.89,569.04 538.64,574.50 C528.61,584.91 514.96,581.01 508.91,566.00 C508.08,563.94 507.50,559.01 507.51,554.00 C507.52,543.95 509.07,540.30 515.03,536.36 C519.70,533.27 519.93,532.31 516.34,530.94 C514.31,530.17 513.95,529.65 514.84,528.76 C518.10,525.50 512.96,524.96 507.09,527.96 C499.23,531.97 495.00,540.56 495.00,552.54 C495.00,568.36 500.55,580.45 511.40,588.26 C517.70,592.80 530.26,593.77 537.73,590.30 ZM 225.38 586.21 C224.65,584.25 224.65,582.92 225.39,581.74 C226.18,580.49 225.98,578.82 224.63,575.28 C223.63,572.65 220.39,563.53 217.43,555.00 C211.68,538.42 202.80,519.50 200.11,518.06 C199.20,517.57 196.88,516.88 194.95,516.52 C191.82,515.93 190.93,516.31 186.67,520.06 C180.95,525.09 175.85,532.82 171.51,543.00 C168.91,549.10 167.87,550.55 165.91,550.78 C159.28,551.55 159.07,551.74 159.17,556.59 C159.22,559.47 159.76,561.36 160.63,561.69 C162.59,562.44 162.32,565.42 159.49,574.29 C155.78,585.89 156.32,592.61 160.58,587.91 C162.30,586.01 162.52,585.99 163.67,587.56 C165.66,590.29 167.43,588.64 169.33,582.30 C170.31,579.03 172.19,574.03 173.51,571.18 C176.24,565.27 177.82,564.83 186.59,567.49 C193.41,569.55 206.52,570.59 207.42,569.13 C208.76,566.95 210.78,568.03 211.40,571.25 C212.35,576.23 216.37,584.21 220.02,588.37 C223.00,591.77 223.46,591.97 224.87,590.56 C226.11,589.32 226.22,588.42 225.38,586.21 ZM 353.64 587.18 C357.11,584.01 358.42,578.63 359.65,562.50 L 360.33 553.50 L 367.92 546.54 C384.10,531.67 390.00,524.55 390.00,519.85 C390.00,517.50 389.58,517.00 387.56,517.00 C386.22,517.00 384.84,516.55 384.50,516.00 C383.06,513.66 380.14,515.47 374.50,522.20 C363.69,535.08 359.68,539.50 358.47,539.80 C357.82,539.96 355.31,536.82 352.89,532.82 C342.75,516.03 336.78,510.29 335.31,515.91 C335.04,516.96 333.96,518.04 332.91,518.31 C329.99,519.08 330.56,521.07 336.16,529.62 C345.07,543.23 347.44,549.23 347.84,559.18 C348.07,564.75 347.62,570.37 346.59,574.89 C345.12,581.36 345.12,582.26 346.60,585.97 C347.49,588.19 348.74,590.00 349.39,590.00 C350.03,590.00 351.94,588.73 353.64,587.18 ZM 662.15 588.36 C663.62,587.03 664.25,586.96 665.47,587.97 C667.71,589.83 669.73,588.56 670.46,584.82 C671.18,581.09 675.82,569.17 677.29,567.25 C678.55,565.60 682.39,565.69 688.36,567.50 C695.13,569.55 708.52,570.59 709.42,569.13 C710.80,566.89 711.87,568.11 714.48,574.96 C718.74,586.09 723.88,592.36 726.01,589.00 C726.53,588.17 726.72,586.74 726.43,585.81 C726.14,584.88 726.44,583.26 727.10,582.21 C728.09,580.62 727.60,578.44 724.15,569.27 C721.87,563.21 720.00,557.73 720.00,557.08 C720.00,555.09 710.40,531.86 706.75,525.00 C703.56,519.02 702.92,518.40 698.60,517.18 C694.39,515.99 693.63,516.04 691.09,517.68 C685.84,521.07 679.89,529.23 674.71,540.14 L 669.55 551.00 L 665.90 551.00 C661.65,551.00 659.11,553.22 660.89,555.37 C661.52,556.13 661.75,557.50 661.40,558.41 C661.03,559.37 661.50,560.89 662.50,562.00 C663.46,563.07 664.02,564.74 663.74,565.72 C663.46,566.70 662.03,571.55 660.57,576.50 C658.20,584.54 657.84,590.00 659.69,590.00 C660.05,590.00 661.16,589.26 662.15,588.36 ZM 116.75 587.58 C127.03,584.84 131.90,580.35 132.67,572.86 C133.34,566.44 129.88,560.25 123.80,556.96 C121.21,555.57 118.79,554.12 118.41,553.75 C118.04,553.37 119.12,551.49 120.81,549.56 C124.91,544.90 126.22,539.94 124.91,534.10 C121.85,520.44 109.26,515.60 88.10,519.96 C71.80,523.31 67.74,525.67 73.75,528.30 C75.26,528.96 76.54,530.06 76.60,530.75 C76.65,531.44 76.77,532.45 76.85,533.00 C76.93,533.55 78.35,534.00 80.00,534.00 L 83.00 534.00 L 83.05 544.75 C83.08,550.66 83.46,558.88 83.89,563.00 C84.95,573.16 84.34,577.68 81.81,578.34 C79.18,579.03 79.80,582.09 82.89,583.63 C84.20,584.29 85.55,585.24 85.89,585.75 C87.48,588.14 91.23,588.94 101.00,588.96 C106.89,588.97 113.81,588.36 116.75,587.58 ZM 300.00 585.45 C313.18,578.38 313.14,563.16 299.91,556.46 C297.21,555.09 295.00,553.81 295.00,553.62 C295.00,553.43 296.34,551.58 297.99,549.52 C302.07,544.38 303.17,539.90 301.86,533.78 C299.98,525.03 293.49,519.93 282.35,518.45 C273.86,517.33 249.23,522.63 248.22,525.80 C247.98,526.54 249.13,527.60 250.90,528.27 C253.12,529.11 254.00,530.09 254.00,531.72 C254.00,533.59 254.54,534.00 257.00,534.00 L 260.00 534.00 L 260.03 543.25 C260.04,548.34 260.46,556.69 260.95,561.81 C261.98,572.37 261.41,578.00 259.34,578.00 C257.35,578.00 256.55,580.75 258.01,582.51 C258.69,583.33 260.09,584.00 261.12,584.00 C262.16,584.00 263.00,584.65 263.00,585.45 C263.00,588.45 266.34,589.08 280.50,588.73 C293.77,588.41 294.79,588.24 300.00,585.45 ZM 445.82 587.78 C446.49,587.11 448.05,586.54 449.27,586.53 C451.38,586.50 451.49,586.13 451.28,579.68 C451.15,575.94 450.33,569.19 449.45,564.68 C447.58,555.14 445.02,535.91 445.01,531.34 L 445.00 528.17 L 452.25 527.50 C456.24,527.13 462.27,526.75 465.65,526.66 C474.83,526.42 478.85,522.03 473.64,517.93 C471.48,516.23 468.74,516.05 441.39,515.79 L 411.50 515.50 L 411.47 520.37 C411.44,526.31 412.02,526.63 424.25,527.54 L 433.00 528.18 L 433.05 533.84 C433.14,544.62 438.95,583.18 441.09,587.17 C442.22,589.29 444.07,589.53 445.82,587.78 ZM 625.02 572.29 C628.23,564.48 631.11,555.81 631.42,553.04 C631.73,550.26 632.61,546.48 633.38,544.63 C635.36,539.88 639.01,524.68 639.59,518.71 C640.15,513.01 639.33,508.00 637.84,508.00 C637.29,508.00 635.09,509.88 632.96,512.17 C630.03,515.31 628.79,517.72 627.93,521.92 C624.86,537.03 616.61,564.41 614.38,566.91 C613.89,567.46 610.00,563.91 610.00,562.92 C610.00,562.49 607.04,555.92 603.43,548.32 C599.82,540.72 595.49,531.35 593.81,527.50 C592.13,523.65 590.31,519.94 589.76,519.25 C588.15,517.24 586.27,517.80 585.59,520.50 C585.18,522.11 584.26,523.00 582.98,523.00 C581.70,523.00 581.00,523.67 581.00,524.90 C581.00,529.08 587.71,544.81 595.63,559.18 C600.23,567.53 604.00,574.76 604.00,575.25 C604.00,575.73 605.17,578.59 606.60,581.61 L 609.19 587.10 L 614.19 586.80 L 619.19 586.50 L 625.02 572.29 ZM 438.50 469.58 C473.16,464.27 502.60,448.79 522.12,425.61 C526.88,419.96 536.00,404.85 536.00,402.62 C536.00,402.30 534.30,401.18 532.23,400.12 L 528.46 398.19 L 525.07 404.35 C511.09,429.69 490.47,445.27 456.50,456.15 C439.90,461.47 410.06,463.06 391.00,459.62 C351.78,452.56 320.41,431.12 306.52,401.88 C300.67,389.56 298.24,370.25 300.94,357.60 C303.14,347.34 312.99,330.70 323.88,318.85 C327.25,315.19 330.00,311.80 330.00,311.31 C330.00,310.83 328.66,309.64 327.02,308.67 C323.12,306.37 321.91,307.06 313.49,316.48 C309.79,320.61 306.43,324.00 306.02,324.00 C305.62,324.00 305.03,317.36 304.71,309.25 C303.89,288.77 301.10,274.49 296.26,266.00 C290.09,255.20 279.80,246.23 269.27,242.49 C266.65,241.55 263.42,240.27 262.09,239.64 C258.29,237.84 236.43,238.33 231.12,240.34 C228.72,241.25 226.29,242.00 225.73,242.00 C225.06,242.00 224.91,238.89 225.28,233.16 C225.88,223.79 224.77,207.00 222.95,198.26 C222.09,194.13 221.45,193.00 219.95,193.00 C217.41,193.00 208.09,204.39 203.52,213.08 C201.55,216.85 199.51,220.18 199.00,220.50 C198.49,220.81 197.20,219.37 196.13,217.29 C192.08,209.40 176.61,194.70 169.53,192.01 C167.31,191.17 166.95,191.36 166.37,193.65 C164.69,200.34 167.57,217.35 172.23,228.28 C173.35,230.91 174.07,233.27 173.81,233.52 C173.56,233.77 168.66,233.47 162.93,232.84 C154.83,231.95 150.88,231.97 145.25,232.94 C141.26,233.62 138.00,234.62 138.00,235.15 C138.00,238.24 159.77,257.46 169.75,263.18 C172.64,264.84 175.00,266.56 175.00,267.01 C175.00,267.46 172.64,269.70 169.75,272.00 C155.56,283.26 148.00,298.56 148.00,316.00 C148.00,324.61 150.05,333.60 153.36,339.52 C157.44,346.84 168.23,358.99 177.94,367.23 C210.51,394.85 242.95,407.21 265.50,400.59 C273.11,398.35 277.08,395.93 284.19,389.20 C289.95,383.74 292.00,383.27 292.00,387.38 C292.00,390.55 296.13,402.34 299.75,409.50 C314.91,439.51 352.20,463.52 393.00,469.53 C404.57,471.23 427.56,471.26 438.50,469.58 ZM 439.50 445.47 C455.85,442.62 473.27,435.96 484.72,428.19 C515.91,407.01 526.59,375.80 512.29,347.58 C507.75,338.64 497.85,326.55 495.65,327.28 C495.09,327.47 494.00,329.51 493.23,331.80 C490.54,339.88 480.48,347.91 467.24,352.57 C452.34,357.81 446.54,358.49 416.50,358.49 C397.16,358.49 386.64,358.09 382.50,357.19 C357.71,351.78 344.08,343.64 339.42,331.42 C338.49,328.99 337.16,327.00 336.46,327.00 C333.30,327.00 321.24,344.46 317.46,354.50 C306.52,383.57 323.78,416.89 358.90,434.47 C382.67,446.37 411.66,450.33 439.50,445.47 ZM 46.47 407.58 C48.47,406.74 50.95,404.46 52.48,402.04 C53.91,399.77 56.21,397.49 57.60,396.96 C61.99,395.29 75.71,395.93 100.67,398.97 C126.47,402.10 129.23,402.01 133.66,397.85 C135.34,396.28 136.00,394.55 136.00,391.76 C136.00,386.74 134.70,384.41 130.75,382.37 C126.87,380.36 113.52,380.86 88.50,383.94 C79.70,385.02 69.02,386.22 64.77,386.59 L 57.03 387.27 L 52.77 382.74 C47.33,376.96 45.34,376.00 38.82,376.00 C28.03,376.00 16.00,384.39 16.00,391.89 C16.00,403.56 33.96,412.80 46.47,407.58 ZM 773.50 402.90 C777.90,402.33 781.93,401.44 782.45,400.93 C783.72,399.69 784.42,399.77 768.01,399.10 C755.63,398.59 753.48,398.26 753.21,396.85 C752.93,395.39 754.52,395.15 766.90,394.85 C780.25,394.52 784.81,393.48 782.60,391.27 C782.18,390.85 775.46,390.27 767.67,390.00 C755.96,389.59 753.50,389.24 753.50,388.00 C753.50,386.75 755.84,386.45 767.48,386.22 C781.84,385.93 785.64,384.97 780.41,382.95 C777.18,381.70 751.35,380.03 747.16,380.80 C745.70,381.07 742.81,382.80 740.75,384.64 C738.68,386.49 736.58,388.00 736.08,388.00 C735.58,388.00 726.92,386.87 716.84,385.48 C687.82,381.49 671.35,380.36 665.58,381.98 C656.05,384.65 653.91,395.56 661.99,400.33 C665.64,402.49 670.80,402.43 691.00,400.00 C731.43,395.14 736.32,395.17 741.41,400.26 C743.03,401.87 745.28,403.60 746.42,404.09 C748.69,405.08 760.89,404.54 773.50,402.90 ZM 532.00 348.50 C532.02,347.40 532.66,344.70 533.42,342.50 C534.19,340.30 534.46,338.28 534.02,338.00 C533.58,337.73 532.56,335.92 531.75,334.00 C529.77,329.31 522.38,319.71 515.69,313.15 C510.02,307.59 508.81,307.30 504.60,310.50 C502.79,311.87 503.02,312.30 509.17,319.22 C517.60,328.71 521.32,334.28 526.21,344.71 C529.08,350.83 530.47,352.87 531.09,351.88 C531.58,351.12 531.98,349.60 532.00,348.50 ZM 439.79 343.96 C449.60,342.90 465.03,339.07 470.17,336.41 C474.31,334.27 480.00,328.22 480.00,325.97 C480.00,324.89 479.72,324.00 479.38,324.00 C479.04,324.00 472.69,326.02 465.26,328.49 C447.20,334.49 432.38,336.45 410.50,335.71 C390.28,335.03 379.63,333.09 365.25,327.47 C358.97,325.01 353.42,323.00 352.91,323.00 C351.19,323.00 352.00,326.31 354.53,329.63 C355.93,331.46 358.97,334.06 361.28,335.41 C366.73,338.57 381.48,342.77 391.01,343.87 C401.82,345.13 428.49,345.17 439.79,343.96 ZM 626.29 302.35 C630.51,301.65 632.49,299.11 631.60,295.53 C631.05,293.33 630.66,293.26 620.76,293.38 C611.62,293.49 610.09,293.24 606.74,291.16 C602.55,288.56 598.82,282.80 596.91,276.00 C594.82,268.54 592.75,267.25 588.96,271.04 C587.35,272.65 587.05,273.85 587.54,276.79 C589.46,288.41 596.93,297.50 607.87,301.52 C611.80,302.97 620.25,303.35 626.29,302.35 ZM 677.01 288.99 C679.12,285.04 672.37,273.84 665.80,270.41 C659.10,266.91 645.38,270.14 648.90,274.39 C649.90,275.58 652.00,276.00 657.03,276.00 C663.42,276.00 663.98,276.19 666.46,279.14 C667.92,280.87 669.37,283.58 669.69,285.18 C670.21,287.78 673.25,291.00 675.19,291.00 C675.60,291.00 676.41,290.09 677.01,288.99 ZM 425.00 282.95 C439.00,280.72 449.69,274.99 460.70,263.81 C470.91,253.43 472.09,248.78 465.81,243.50 C460.55,239.07 456.86,240.42 449.84,249.34 C444.98,255.53 435.62,262.30 428.81,264.56 C425.43,265.68 421.52,266.09 416.58,265.84 C410.47,265.54 407.95,264.80 400.90,261.30 C396.28,259.01 390.10,255.08 387.17,252.57 C380.81,247.12 378.04,246.81 373.80,251.05 C371.23,253.62 370.84,254.63 371.32,257.56 C372.81,266.78 389.64,279.08 405.46,282.53 C413.03,284.17 416.81,284.25 425.00,282.95 ZM 514.57 264.53 C533.47,258.89 538.37,232.88 523.01,219.74 C511.50,209.89 493.08,214.00 486.24,227.93 C483.97,232.55 483.51,234.78 483.56,241.00 C483.65,252.88 488.82,260.52 499.20,264.10 C505.69,266.35 508.24,266.42 514.57,264.53 ZM 340.83 264.38 C344.82,263.59 351.57,257.78 353.90,253.14 C359.92,241.20 355.94,225.62 345.04,218.41 C339.63,214.83 329.95,213.98 323.31,216.52 C317.69,218.67 310.56,224.99 307.92,230.17 C305.55,234.79 305.34,244.82 307.51,249.39 C312.11,259.07 321.25,265.00 331.57,265.00 C334.97,265.00 339.14,264.72 340.83,264.38 ZM 615.49 241.02 C616.48,239.42 613.99,231.73 611.35,228.24 C607.56,223.23 601.74,220.69 595.27,221.23 C589.47,221.71 586.54,223.64 587.57,226.32 C588.08,227.65 589.54,228.00 594.57,228.00 C600.25,228.00 601.31,228.33 604.45,231.09 C606.56,232.94 608.39,235.75 609.02,238.09 C609.88,241.26 610.53,242.00 612.48,242.00 C613.80,242.00 615.15,241.56 615.49,241.02 ZM 702.08 208.91 C709.42,202.01 723.90,191.26 732.88,186.05 C742.45,180.49 747.57,175.79 750.63,169.74 C755.44,160.25 754.30,150.49 748.00,147.24 C745.11,145.75 738.01,146.43 733.81,148.60 C730.36,150.38 728.64,150.39 729.32,148.60 C729.62,147.83 733.34,142.32 737.59,136.35 C741.84,130.38 746.13,123.70 747.14,121.50 C749.22,116.92 749.56,108.32 747.81,104.47 C745.52,99.46 738.27,97.60 731.72,100.35 C726.21,102.66 722.69,106.41 712.94,120.38 C707.75,127.81 703.14,133.54 702.70,133.10 C702.26,132.66 702.43,130.17 703.09,127.58 C703.98,124.03 703.99,121.92 703.15,119.09 C701.65,114.10 699.29,112.14 693.86,111.39 C685.77,110.29 675.70,117.41 671.78,127.00 C671.22,128.38 669.69,134.68 668.39,141.00 C665.62,154.41 660.98,169.06 656.89,177.35 C655.30,180.57 654.00,183.33 654.00,183.48 C654.00,183.84 662.91,190.54 670.00,195.52 C678.53,201.52 696.38,213.90 696.58,213.97 C696.62,213.99 699.10,211.71 702.08,208.91 ZM 328.03 188.42 C340.83,175.36 351.92,174.99 367.13,187.12 C370.63,189.90 373.74,188.86 375.67,184.25 C377.04,180.96 377.01,180.49 375.23,178.09 C372.32,174.17 366.22,170.31 359.14,167.91 C351.11,165.20 339.06,165.59 331.78,168.81 C323.37,172.54 315.00,181.67 315.00,187.14 C315.00,189.78 318.67,194.00 320.96,194.00 C321.84,194.00 325.03,191.49 328.03,188.42 ZM 475.03 187.42 C487.89,174.30 498.99,173.95 514.22,186.16 C516.54,188.02 517.32,188.18 519.49,187.19 C522.64,185.75 524.46,181.97 523.61,178.59 C522.77,175.25 514.41,169.63 506.21,166.90 C497.31,163.94 486.82,164.51 478.25,168.42 C469.61,172.37 462.00,180.88 462.00,186.61 C462.00,188.45 466.44,193.00 468.24,193.00 C468.97,193.00 472.03,190.49 475.03,187.42 ZM 432.46 110.45 C443.20,105.36 444.84,88.34 435.40,80.05 C432.53,77.53 431.07,77.00 426.97,77.00 C422.31,77.00 421.83,77.25 419.01,81.15 C415.70,85.71 415.14,90.04 417.58,92.07 C419.57,93.72 421.97,92.40 423.80,88.66 C425.83,84.53 430.14,84.98 432.31,89.53 C434.70,94.54 434.42,97.50 431.19,101.11 C428.93,103.64 427.40,104.35 423.34,104.74 C416.74,105.38 409.86,102.45 407.03,97.82 C401.38,88.55 407.53,71.68 421.23,58.90 C426.11,54.35 427.11,52.91 426.55,51.15 C424.06,43.30 409.38,56.45 401.31,73.77 C393.08,91.42 397.28,105.84 412.18,111.16 C418.49,113.41 426.84,113.12 432.46,110.45 ZM 194.48 557.53 C186.87,555.87 181.00,553.44 181.00,551.95 C181.00,550.23 187.70,537.95 190.53,534.50 C192.54,532.04 193.29,531.70 194.74,532.59 C196.58,533.74 205.92,554.22 205.97,557.25 C206.01,559.36 203.21,559.43 194.48,557.53 ZM 695.86 557.49 C688.78,556.08 683.00,553.59 683.00,551.95 C683.00,548.27 694.37,530.49 696.06,531.53 C698.05,532.76 708.00,554.92 708.00,558.12 C708.00,559.30 703.89,559.09 695.86,557.49 ZM 96.67 577.33 C96.30,576.97 96.00,572.47 96.00,567.33 C96.00,559.70 96.27,558.00 97.50,558.00 C98.32,558.00 99.00,558.88 99.00,559.96 C99.00,562.02 100.70,562.67 111.95,564.95 C123.07,567.21 124.19,573.47 114.10,576.86 C110.44,578.09 97.76,578.43 96.67,577.33 ZM 96.00 549.17 C96.00,547.59 95.70,542.80 95.34,538.53 L 94.69 530.76 L 101.77 531.16 C110.15,531.63 113.00,533.51 113.00,538.58 C113.00,544.23 107.47,549.19 98.75,551.36 C96.23,551.98 96.00,551.80 96.00,549.17 ZM 273.75 577.43 C273.34,577.01 273.00,572.47 273.00,567.33 C273.00,559.70 273.27,558.00 274.50,558.00 C275.33,558.00 276.00,558.88 276.00,559.96 C276.00,562.01 277.10,562.43 289.14,564.92 C298.08,566.78 300.42,571.11 294.75,575.34 C292.61,576.93 290.08,577.47 283.25,577.79 C278.44,578.02 274.16,577.86 273.75,577.43 ZM 272.52 541.43 C272.13,536.17 272.08,531.59 272.41,531.26 C272.75,530.92 275.55,530.71 278.64,530.80 C284.78,530.96 288.63,532.84 289.93,536.31 C292.12,542.19 283.56,551.00 275.65,551.00 C273.32,551.00 273.21,550.68 272.52,541.43 ZM 162.12 304.37 C159.38,302.45 159.37,298.41 162.09,296.95 C164.58,295.62 168.56,296.41 169.32,298.39 C171.01,302.80 165.92,307.03 162.12,304.37 ZM 218.20 298.80 C215.40,295.99 217.51,291.00 221.50,291.00 C224.18,291.00 226.00,292.82 226.00,295.50 C226.00,298.18 224.18,300.00 221.50,300.00 C220.35,300.00 218.86,299.46 218.20,298.80 ZM 193.00 288.00 C191.90,286.90 191.00,285.39 191.00,284.65 C191.00,282.92 194.22,280.00 196.13,280.00 C200.06,280.00 201.59,287.08 198.07,288.96 C195.49,290.35 195.31,290.31 193.00,288.00 ZM 224.00 272.00 C221.35,269.35 221.48,267.39 224.43,265.45 C226.33,264.21 227.33,264.10 228.93,264.96 C231.67,266.43 231.75,271.53 229.07,272.96 C226.49,274.35 226.31,274.31 224.00,272.00 ZM 252.57 257.07 C249.30,253.46 252.32,249.11 257.23,250.34 C260.40,251.14 261.29,253.27 259.81,256.51 C258.44,259.53 255.03,259.80 252.57,257.07 ZM 408.02 420.25 C400.90,412.93 394.50,401.98 393.43,395.28 C392.63,390.30 394.38,384.55 397.30,382.50 C398.48,381.68 401.29,381.00 403.54,381.00 C408.16,381.00 411.35,383.67 414.71,390.36 L 416.65 394.21 L 419.93 389.11 C424.57,381.87 428.30,379.00 433.05,379.00 C436.38,379.00 437.18,379.44 438.51,382.03 C439.82,384.56 439.90,386.05 438.98,391.11 C437.75,397.88 437.30,399.13 431.88,410.61 C427.35,420.19 421.29,427.00 417.29,427.00 C415.25,427.00 412.94,425.31 408.02,420.25 Z" fill="rgb(245,133,18)"/>
<path d="M 0.00 308.00 L 0.00 0.00 L 409.00 0.00 L 818.00 0.00 L 818.00 308.00 L 818.00 616.00 L 409.00 616.00 L 0.00 616.00 L 0.00 308.00 ZM 537.73 590.30 C543.58,587.57 549.54,581.37 553.08,574.31 C556.49,567.52 556.50,567.45 556.49,553.50 C556.48,540.85 556.26,539.08 554.20,535.20 C548.44,524.38 539.14,518.41 529.28,519.23 C522.83,519.76 520.56,521.44 523.44,523.57 C524.51,524.36 526.37,525.00 527.57,525.00 C528.90,525.00 529.97,525.76 530.27,526.92 C530.55,527.98 532.51,529.73 534.64,530.82 C542.86,535.04 546.42,541.47 546.38,552.00 C546.33,561.95 543.89,569.04 538.64,574.50 C528.61,584.91 514.96,581.01 508.91,566.00 C508.08,563.94 507.50,559.01 507.51,554.00 C507.52,543.95 509.07,540.30 515.03,536.36 C519.70,533.27 519.93,532.31 516.34,530.94 C514.31,530.17 513.95,529.65 514.84,528.76 C518.10,525.50 512.96,524.96 507.09,527.96 C499.23,531.97 495.00,540.56 495.00,552.54 C495.00,568.36 500.55,580.45 511.40,588.26 C517.70,592.80 530.26,593.77 537.73,590.30 ZM 225.38 586.21 C224.65,584.25 224.65,582.92 225.39,581.74 C226.18,580.49 225.98,578.82 224.63,575.28 C223.63,572.65 220.39,563.53 217.43,555.00 C211.68,538.42 202.80,519.50 200.11,518.06 C199.20,517.57 196.88,516.88 194.95,516.52 C191.82,515.93 190.93,516.31 186.67,520.06 C180.95,525.09 175.85,532.82 171.51,543.00 C168.91,549.10 167.87,550.55 165.91,550.78 C159.28,551.55 159.07,551.74 159.17,556.59 C159.22,559.47 159.76,561.36 160.63,561.69 C162.59,562.44 162.32,565.42 159.49,574.29 C155.78,585.89 156.32,592.61 160.58,587.91 C162.30,586.01 162.52,585.99 163.67,587.56 C165.66,590.29 167.43,588.64 169.33,582.30 C170.31,579.03 172.19,574.03 173.51,571.18 C176.24,565.27 177.82,564.83 186.59,567.49 C193.41,569.55 206.52,570.59 207.42,569.13 C208.76,566.95 210.78,568.03 211.40,571.25 C212.35,576.23 216.37,584.21 220.02,588.37 C223.00,591.77 223.46,591.97 224.87,590.56 C226.11,589.32 226.22,588.42 225.38,586.21 ZM 353.64 587.18 C357.11,584.01 358.42,578.63 359.65,562.50 L 360.33 553.50 L 367.92 546.54 C384.10,531.67 390.00,524.55 390.00,519.85 C390.00,517.50 389.58,517.00 387.56,517.00 C386.22,517.00 384.84,516.55 384.50,516.00 C383.06,513.66 380.14,515.47 374.50,522.20 C363.69,535.08 359.68,539.50 358.47,539.80 C357.82,539.96 355.31,536.82 352.89,532.82 C342.75,516.03 336.78,510.29 335.31,515.91 C335.04,516.96 333.96,518.04 332.91,518.31 C329.99,519.08 330.56,521.07 336.16,529.62 C345.07,543.23 347.44,549.23 347.84,559.18 C348.07,564.75 347.62,570.37 346.59,574.89 C345.12,581.36 345.12,582.26 346.60,585.97 C347.49,588.19 348.74,590.00 349.39,590.00 C350.03,590.00 351.94,588.73 353.64,587.18 ZM 662.15 588.36 C663.62,587.03 664.25,586.96 665.47,587.97 C667.71,589.83 669.73,588.56 670.46,584.82 C671.18,581.09 675.82,569.17 677.29,567.25 C678.55,565.60 682.39,565.69 688.36,567.50 C695.13,569.55 708.52,570.59 709.42,569.13 C710.80,566.89 711.87,568.11 714.48,574.96 C718.74,586.09 723.88,592.36 726.01,589.00 C726.53,588.17 726.72,586.74 726.43,585.81 C726.14,584.88 726.44,583.26 727.10,582.21 C728.09,580.62 727.60,578.44 724.15,569.27 C721.87,563.21 720.00,557.73 720.00,557.08 C720.00,555.09 710.40,531.86 706.75,525.00 C703.56,519.02 702.92,518.40 698.60,517.18 C694.39,515.99 693.63,516.04 691.09,517.68 C685.84,521.07 679.89,529.23 674.71,540.14 L 669.55 551.00 L 665.90 551.00 C661.65,551.00 659.11,553.22 660.89,555.37 C661.52,556.13 661.75,557.50 661.40,558.41 C661.03,559.37 661.50,560.89 662.50,562.00 C663.46,563.07 664.02,564.74 663.74,565.72 C663.46,566.70 662.03,571.55 660.57,576.50 C658.20,584.54 657.84,590.00 659.69,590.00 C660.05,590.00 661.16,589.26 662.15,588.36 ZM 116.75 587.58 C127.03,584.84 131.90,580.35 132.67,572.86 C133.34,566.44 129.88,560.25 123.80,556.96 C121.21,555.57 118.79,554.12 118.41,553.75 C118.04,553.37 119.12,551.49 120.81,549.56 C124.91,544.90 126.22,539.94 124.91,534.10 C121.85,520.44 109.26,515.60 88.10,519.96 C71.80,523.31 67.74,525.67 73.75,528.30 C75.26,528.96 76.54,530.06 76.60,530.75 C76.65,531.44 76.77,532.45 76.85,533.00 C76.93,533.55 78.35,534.00 80.00,534.00 L 83.00 534.00 L 83.05 544.75 C83.08,550.66 83.46,558.88 83.89,563.00 C84.95,573.16 84.34,577.68 81.81,578.34 C79.18,579.03 79.80,582.09 82.89,583.63 C84.20,584.29 85.55,585.24 85.89,585.75 C87.48,588.14 91.23,588.94 101.00,588.96 C106.89,588.97 113.81,588.36 116.75,587.58 ZM 300.00 585.45 C313.18,578.38 313.14,563.16 299.91,556.46 C297.21,555.09 295.00,553.81 295.00,553.62 C295.00,553.43 296.34,551.58 297.99,549.52 C302.07,544.38 303.17,539.90 301.86,533.78 C299.98,525.03 293.49,519.93 282.35,518.45 C273.86,517.33 249.23,522.63 248.22,525.80 C247.98,526.54 249.13,527.60 250.90,528.27 C253.12,529.11 254.00,530.09 254.00,531.72 C254.00,533.59 254.54,534.00 257.00,534.00 L 260.00 534.00 L 260.03 543.25 C260.04,548.34 260.46,556.69 260.95,561.81 C261.98,572.37 261.41,578.00 259.34,578.00 C257.35,578.00 256.55,580.75 258.01,582.51 C258.69,583.33 260.09,584.00 261.12,584.00 C262.16,584.00 263.00,584.65 263.00,585.45 C263.00,588.45 266.34,589.08 280.50,588.73 C293.77,588.41 294.79,588.24 300.00,585.45 ZM 445.82 587.78 C446.49,587.11 448.05,586.54 449.27,586.53 C451.38,586.50 451.49,586.13 451.28,579.68 C451.15,575.94 450.33,569.19 449.45,564.68 C447.58,555.14 445.02,535.91 445.01,531.34 L 445.00 528.17 L 452.25 527.50 C456.24,527.13 462.27,526.75 465.65,526.66 C474.83,526.42 478.85,522.03 473.64,517.93 C471.48,516.23 468.74,516.05 441.39,515.79 L 411.50 515.50 L 411.47 520.37 C411.44,526.31 412.02,526.63 424.25,527.54 L 433.00 528.18 L 433.05 533.84 C433.14,544.62 438.95,583.18 441.09,587.17 C442.22,589.29 444.07,589.53 445.82,587.78 ZM 625.02 572.29 C628.23,564.48 631.11,555.81 631.42,553.04 C631.73,550.26 632.61,546.48 633.38,544.63 C635.36,539.88 639.01,524.68 639.59,518.71 C640.15,513.01 639.33,508.00 637.84,508.00 C637.29,508.00 635.09,509.88 632.96,512.17 C630.03,515.31 628.79,517.72 627.93,521.92 C624.86,537.03 616.61,564.41 614.38,566.91 C613.89,567.46 610.00,563.91 610.00,562.92 C610.00,562.49 607.04,555.92 603.43,548.32 C599.82,540.72 595.49,531.35 593.81,527.50 C592.13,523.65 590.31,519.94 589.76,519.25 C588.15,517.24 586.27,517.80 585.59,520.50 C585.18,522.11 584.26,523.00 582.98,523.00 C581.70,523.00 581.00,523.67 581.00,524.90 C581.00,529.08 587.71,544.81 595.63,559.18 C600.23,567.53 604.00,574.76 604.00,575.25 C604.00,575.73 605.17,578.59 606.60,581.61 L 609.19 587.10 L 614.19 586.80 L 619.19 586.50 L 625.02 572.29 ZM 438.50 469.58 C459.78,466.32 479.89,458.96 496.00,448.54 C511.60,438.45 525.18,424.15 532.20,410.45 C536.18,402.67 536.56,402.26 540.92,401.10 C552.98,397.87 575.72,384.51 594.83,369.43 C614.47,353.93 653.44,316.60 668.89,298.50 C671.71,295.20 675.95,290.48 678.33,288.00 C685.11,280.94 703.05,259.50 707.85,252.72 C712.04,246.81 712.19,246.33 711.82,240.44 C711.34,233.02 706.61,222.68 701.46,217.82 C699.56,216.03 698.00,214.10 698.00,213.53 C698.00,210.86 719.96,193.56 732.88,186.05 C742.46,180.48 747.57,175.79 750.63,169.74 C755.44,160.25 754.30,150.49 748.00,147.24 C745.11,145.75 738.01,146.43 733.81,148.60 C730.36,150.38 728.64,150.39 729.32,148.60 C729.62,147.83 733.34,142.32 737.59,136.35 C741.84,130.38 746.13,123.70 747.14,121.50 C749.22,116.92 749.56,108.32 747.81,104.47 C745.52,99.46 738.27,97.60 731.72,100.35 C726.21,102.66 722.69,106.41 712.94,120.38 C707.75,127.81 703.14,133.54 702.70,133.10 C702.26,132.66 702.43,130.17 703.09,127.58 C703.98,124.03 703.99,121.92 703.15,119.09 C701.65,114.10 699.29,112.14 693.86,111.39 C685.77,110.29 675.70,117.41 671.78,127.00 C671.22,128.38 669.69,134.68 668.39,141.00 C664.89,157.90 656.94,180.68 653.87,182.58 C653.39,182.88 650.23,181.41 646.84,179.32 C641.46,176.00 639.76,175.48 633.32,175.15 C618.69,174.41 612.52,177.13 607.80,186.41 C606.65,188.66 604.71,191.85 603.49,193.50 C599.20,199.31 584.56,225.78 571.98,250.50 C554.60,284.63 546.52,303.15 539.08,325.94 C537.02,332.24 534.89,337.54 534.34,337.72 C533.78,337.91 532.65,336.36 531.81,334.28 C529.88,329.44 522.67,319.99 515.69,313.15 C510.02,307.59 508.81,307.30 504.60,310.50 C502.79,311.87 503.02,312.30 509.17,319.22 C517.61,328.72 521.32,334.28 526.24,344.77 L 530.28 353.38 L 528.57 365.94 C527.63,372.85 526.72,379.25 526.55,380.17 C526.37,381.08 526.63,385.75 527.11,390.55 C527.99,399.21 527.98,399.29 524.82,404.88 C510.53,430.10 490.22,445.34 456.50,456.15 C439.90,461.47 410.06,463.06 391.00,459.62 C351.78,452.56 320.41,431.12 306.52,401.88 C300.67,389.56 298.24,370.25 300.94,357.60 C303.14,347.34 312.99,330.70 323.88,318.85 C327.25,315.19 330.00,311.80 330.00,311.31 C330.00,310.83 328.66,309.64 327.02,308.67 C323.12,306.37 321.91,307.06 313.49,316.48 C309.79,320.61 306.43,324.00 306.02,324.00 C305.62,324.00 305.03,317.36 304.71,309.25 C303.89,288.77 301.10,274.49 296.26,266.00 C290.09,255.20 279.80,246.23 269.27,242.49 C266.65,241.55 263.42,240.27 262.09,239.64 C258.29,237.84 236.43,238.33 231.12,240.34 C228.72,241.25 226.29,242.00 225.73,242.00 C225.06,242.00 224.91,238.89 225.28,233.16 C225.88,223.79 224.77,207.00 222.95,198.26 C222.09,194.13 221.45,193.00 219.95,193.00 C217.41,193.00 208.09,204.39 203.52,213.08 C201.55,216.85 199.51,220.18 199.00,220.50 C198.49,220.81 197.20,219.37 196.13,217.29 C192.08,209.40 176.61,194.70 169.53,192.01 C167.31,191.17 166.95,191.36 166.37,193.65 C164.69,200.34 167.57,217.35 172.23,228.28 C173.35,230.91 174.07,233.27 173.81,233.52 C173.56,233.77 168.66,233.47 162.93,232.84 C154.83,231.95 150.88,231.97 145.25,232.94 C141.26,233.62 138.00,234.62 138.00,235.15 C138.00,238.24 159.77,257.46 169.75,263.18 C172.64,264.84 175.00,266.56 175.00,267.01 C175.00,267.46 172.64,269.70 169.75,272.00 C155.56,283.26 148.00,298.56 148.00,316.00 C148.00,324.61 150.05,333.60 153.36,339.52 C157.44,346.84 168.23,358.99 177.94,367.23 C210.51,394.85 242.95,407.21 265.50,400.59 C273.11,398.35 277.08,395.93 284.19,389.20 C289.95,383.74 292.00,383.27 292.00,387.38 C292.00,390.55 296.13,402.34 299.75,409.50 C314.91,439.51 352.20,463.52 393.00,469.53 C404.57,471.23 427.56,471.26 438.50,469.58 ZM 439.50 445.47 C455.85,442.62 473.27,435.96 484.72,428.19 C515.91,407.01 526.59,375.80 512.29,347.58 C507.75,338.64 497.85,326.55 495.65,327.28 C495.09,327.47 494.00,329.51 493.23,331.80 C490.54,339.88 480.48,347.91 467.24,352.57 C452.34,357.81 446.54,358.49 416.50,358.49 C397.16,358.49 386.64,358.09 382.50,357.19 C357.71,351.78 344.08,343.64 339.42,331.42 C338.49,328.99 337.16,327.00 336.46,327.00 C333.30,327.00 321.24,344.46 317.46,354.50 C306.52,383.57 323.78,416.89 358.90,434.47 C382.67,446.37 411.66,450.33 439.50,445.47 ZM 46.47 407.58 C48.47,406.74 50.95,404.46 52.48,402.04 C53.91,399.77 56.21,397.49 57.60,396.96 C61.99,395.29 75.71,395.93 100.67,398.97 C126.47,402.10 129.23,402.01 133.66,397.85 C135.34,396.28 136.00,394.55 136.00,391.76 C136.00,386.74 134.70,384.41 130.75,382.37 C126.87,380.36 113.52,380.86 88.50,383.94 C79.70,385.02 69.02,386.22 64.77,386.59 L 57.03 387.27 L 52.77 382.74 C47.33,376.96 45.34,376.00 38.82,376.00 C28.03,376.00 16.00,384.39 16.00,391.89 C16.00,403.56 33.96,412.80 46.47,407.58 ZM 773.50 402.90 C777.90,402.33 781.93,401.44 782.45,400.93 C783.72,399.69 784.42,399.77 768.01,399.10 C755.63,398.59 753.48,398.26 753.21,396.85 C752.93,395.39 754.52,395.15 766.90,394.85 C780.25,394.52 784.81,393.48 782.60,391.27 C782.18,390.85 775.46,390.27 767.67,390.00 C755.96,389.59 753.50,389.24 753.50,388.00 C753.50,386.75 755.84,386.45 767.48,386.22 C781.84,385.93 785.64,384.97 780.41,382.95 C777.18,381.70 751.35,380.03 747.16,380.80 C745.70,381.07 742.81,382.80 740.75,384.64 C738.68,386.49 736.58,388.00 736.08,388.00 C735.58,388.00 726.92,386.87 716.84,385.48 C687.82,381.49 671.35,380.36 665.58,381.98 C656.05,384.65 653.91,395.56 661.99,400.33 C665.64,402.49 670.80,402.43 691.00,400.00 C731.43,395.14 736.32,395.17 741.41,400.26 C743.03,401.87 745.28,403.60 746.42,404.09 C748.69,405.08 760.89,404.54 773.50,402.90 ZM 439.79 343.96 C449.60,342.90 465.03,339.07 470.17,336.41 C474.31,334.27 480.00,328.22 480.00,325.97 C480.00,324.89 479.72,324.00 479.38,324.00 C479.04,324.00 472.69,326.02 465.26,328.49 C447.20,334.49 432.38,336.45 410.50,335.71 C390.28,335.03 379.63,333.09 365.25,327.47 C358.97,325.01 353.42,323.00 352.91,323.00 C351.19,323.00 352.00,326.31 354.53,329.63 C355.93,331.46 358.97,334.06 361.28,335.41 C366.73,338.57 381.48,342.77 391.01,343.87 C401.82,345.13 428.49,345.17 439.79,343.96 ZM 425.00 282.95 C439.00,280.72 449.69,274.99 460.70,263.81 C470.91,253.43 472.09,248.78 465.81,243.50 C460.55,239.07 456.86,240.42 449.84,249.34 C444.98,255.53 435.62,262.30 428.81,264.56 C425.43,265.68 421.52,266.09 416.58,265.84 C410.47,265.54 407.95,264.80 400.90,261.30 C396.28,259.01 390.10,255.08 387.17,252.57 C380.81,247.12 378.04,246.81 373.80,251.05 C371.23,253.62 370.84,254.63 371.32,257.56 C372.81,266.78 389.64,279.08 405.46,282.53 C413.03,284.17 416.81,284.25 425.00,282.95 ZM 514.57 264.53 C533.47,258.89 538.37,232.88 523.01,219.74 C511.50,209.89 493.08,214.00 486.24,227.93 C483.97,232.55 483.51,234.78 483.56,241.00 C483.65,252.88 488.82,260.52 499.20,264.10 C505.69,266.35 508.24,266.42 514.57,264.53 ZM 340.83 264.38 C344.82,263.59 351.57,257.78 353.90,253.14 C359.92,241.20 355.94,225.62 345.04,218.41 C339.63,214.83 329.95,213.98 323.31,216.52 C317.69,218.67 310.56,224.99 307.92,230.17 C305.55,234.79 305.34,244.82 307.51,249.39 C312.11,259.07 321.25,265.00 331.57,265.00 C334.97,265.00 339.14,264.72 340.83,264.38 ZM 328.03 188.42 C340.83,175.36 351.92,174.99 367.13,187.12 C370.63,189.90 373.74,188.86 375.67,184.25 C377.04,180.96 377.01,180.49 375.23,178.09 C372.32,174.17 366.22,170.31 359.14,167.91 C351.11,165.20 339.06,165.59 331.78,168.81 C323.37,172.54 315.00,181.67 315.00,187.14 C315.00,189.78 318.67,194.00 320.96,194.00 C321.84,194.00 325.03,191.49 328.03,188.42 ZM 475.03 187.42 C487.89,174.30 498.99,173.95 514.22,186.16 C516.54,188.02 517.32,188.18 519.49,187.19 C522.64,185.75 524.46,181.97 523.61,178.59 C522.77,175.25 514.41,169.63 506.21,166.90 C497.31,163.94 486.82,164.51 478.25,168.42 C469.61,172.37 462.00,180.88 462.00,186.61 C462.00,188.45 466.44,193.00 468.24,193.00 C468.97,193.00 472.03,190.49 475.03,187.42 ZM 432.46 110.45 C443.20,105.36 444.84,88.34 435.40,80.05 C432.53,77.53 431.07,77.00 426.97,77.00 C422.31,77.00 421.83,77.25 419.01,81.15 C415.70,85.71 415.14,90.04 417.58,92.07 C419.57,93.72 421.97,92.40 423.80,88.66 C425.83,84.53 430.14,84.98 432.31,89.53 C434.70,94.54 434.42,97.50 431.19,101.11 C428.93,103.64 427.40,104.35 423.34,104.74 C416.74,105.38 409.86,102.45 407.03,97.82 C401.38,88.55 407.53,71.68 421.23,58.90 C426.11,54.35 427.11,52.91 426.55,51.15 C424.06,43.30 409.38,56.45 401.31,73.77 C393.08,91.42 397.28,105.84 412.18,111.16 C418.49,113.41 426.84,113.12 432.46,110.45 ZM 194.48 557.53 C186.87,555.87 181.00,553.44 181.00,551.95 C181.00,550.23 187.70,537.95 190.53,534.50 C192.54,532.04 193.29,531.70 194.74,532.59 C196.58,533.74 205.92,554.22 205.97,557.25 C206.01,559.36 203.21,559.43 194.48,557.53 ZM 695.86 557.49 C688.78,556.08 683.00,553.59 683.00,551.95 C683.00,548.27 694.37,530.49 696.06,531.53 C698.05,532.76 708.00,554.92 708.00,558.12 C708.00,559.30 703.89,559.09 695.86,557.49 ZM 96.67 577.33 C96.30,576.97 96.00,572.47 96.00,567.33 C96.00,559.70 96.27,558.00 97.50,558.00 C98.32,558.00 99.00,558.88 99.00,559.96 C99.00,562.02 100.70,562.67 111.95,564.95 C123.07,567.21 124.19,573.47 114.10,576.86 C110.44,578.09 97.76,578.43 96.67,577.33 ZM 96.00 549.17 C96.00,547.59 95.70,542.80 95.34,538.53 L 94.69 530.76 L 101.77 531.16 C110.15,531.63 113.00,533.51 113.00,538.58 C113.00,544.23 107.47,549.19 98.75,551.36 C96.23,551.98 96.00,551.80 96.00,549.17 ZM 273.75 577.43 C273.34,577.01 273.00,572.47 273.00,567.33 C273.00,559.70 273.27,558.00 274.50,558.00 C275.33,558.00 276.00,558.88 276.00,559.96 C276.00,562.01 277.10,562.43 289.14,564.92 C298.08,566.78 300.42,571.11 294.75,575.34 C292.61,576.93 290.08,577.47 283.25,577.79 C278.44,578.02 274.16,577.86 273.75,577.43 ZM 272.52 541.43 C272.13,536.17 272.08,531.59 272.41,531.26 C272.75,530.92 275.55,530.71 278.64,530.80 C284.78,530.96 288.63,532.84 289.93,536.31 C292.12,542.19 283.56,551.00 275.65,551.00 C273.32,551.00 273.21,550.68 272.52,541.43 ZM 162.12 304.37 C159.38,302.45 159.37,298.41 162.09,296.95 C164.58,295.62 168.56,296.41 169.32,298.39 C171.01,302.80 165.92,307.03 162.12,304.37 ZM 218.20 298.80 C215.40,295.99 217.51,291.00 221.50,291.00 C224.18,291.00 226.00,292.82 226.00,295.50 C226.00,298.18 224.18,300.00 221.50,300.00 C220.35,300.00 218.86,299.46 218.20,298.80 ZM 193.00 288.00 C191.90,286.90 191.00,285.39 191.00,284.65 C191.00,282.92 194.22,280.00 196.13,280.00 C200.06,280.00 201.59,287.08 198.07,288.96 C195.49,290.35 195.31,290.31 193.00,288.00 ZM 224.00 272.00 C221.35,269.35 221.48,267.39 224.43,265.45 C226.33,264.21 227.33,264.10 228.93,264.96 C231.67,266.43 231.75,271.53 229.07,272.96 C226.49,274.35 226.31,274.31 224.00,272.00 ZM 681.67 260.33 C681.30,259.97 681.00,258.45 681.00,256.96 C681.00,244.84 701.56,225.35 702.82,236.27 C703.87,245.36 686.48,265.14 681.67,260.33 ZM 252.57 257.07 C249.30,253.46 252.32,249.11 257.23,250.34 C260.40,251.14 261.29,253.27 259.81,256.51 C258.44,259.53 255.03,259.80 252.57,257.07 ZM 408.02 420.25 C400.90,412.93 394.50,401.98 393.43,395.28 C392.63,390.30 394.38,384.55 397.30,382.50 C398.48,381.68 401.29,381.00 403.54,381.00 C408.16,381.00 411.35,383.67 414.71,390.36 L 416.65 394.21 L 419.93 389.11 C424.57,381.87 428.30,379.00 433.05,379.00 C436.38,379.00 437.18,379.44 438.51,382.03 C439.82,384.56 439.90,386.05 438.98,391.11 C437.75,397.88 437.30,399.13 431.88,410.61 C427.35,420.19 421.29,427.00 417.29,427.00 C415.25,427.00 412.94,425.31 408.02,420.25 Z" fill="rgb(250,206,190)"/>
<path d="M 0.00 308.00 L 0.00 0.00 L 409.00 0.00 L 818.00 0.00 L 818.00 308.00 L 818.00 616.00 L 409.00 616.00 L 0.00 616.00 L 0.00 308.00 ZM 537.73 590.30 C543.58,587.57 549.54,581.37 553.08,574.31 C556.49,567.52 556.50,567.45 556.49,553.50 C556.48,540.85 556.26,539.08 554.20,535.20 C548.44,524.38 539.14,518.41 529.28,519.23 C522.83,519.76 520.56,521.44 523.44,523.57 C524.51,524.36 526.37,525.00 527.57,525.00 C528.90,525.00 529.97,525.76 530.27,526.92 C530.55,527.98 532.51,529.73 534.64,530.82 C542.86,535.04 546.42,541.47 546.38,552.00 C546.33,561.95 543.89,569.04 538.64,574.50 C528.61,584.91 514.96,581.01 508.91,566.00 C508.08,563.94 507.50,559.01 507.51,554.00 C507.52,543.95 509.07,540.30 515.03,536.36 C519.70,533.27 519.93,532.31 516.34,530.94 C514.31,530.17 513.95,529.65 514.84,528.76 C518.10,525.50 512.96,524.96 507.09,527.96 C499.23,531.97 495.00,540.56 495.00,552.54 C495.00,568.36 500.55,580.45 511.40,588.26 C517.70,592.80 530.26,593.77 537.73,590.30 ZM 225.38 586.21 C224.65,584.25 224.65,582.92 225.39,581.74 C226.18,580.49 225.98,578.82 224.63,575.28 C223.63,572.65 220.39,563.53 217.43,555.00 C211.68,538.42 202.80,519.50 200.11,518.06 C199.20,517.57 196.88,516.88 194.95,516.52 C191.82,515.93 190.93,516.31 186.67,520.06 C180.95,525.09 175.85,532.82 171.51,543.00 C168.91,549.10 167.87,550.55 165.91,550.78 C159.28,551.55 159.07,551.74 159.17,556.59 C159.22,559.47 159.76,561.36 160.63,561.69 C162.59,562.44 162.32,565.42 159.49,574.29 C155.78,585.89 156.32,592.61 160.58,587.91 C162.30,586.01 162.52,585.99 163.67,587.56 C165.66,590.29 167.43,588.64 169.33,582.30 C170.31,579.03 172.19,574.03 173.51,571.18 C176.25,565.27 177.86,564.82 186.59,567.52 C189.29,568.35 195.87,569.32 201.22,569.67 L 210.94 570.30 L 212.11 573.90 C213.93,579.53 216.73,584.62 220.16,588.53 C223.02,591.78 223.46,591.97 224.87,590.56 C226.11,589.32 226.22,588.42 225.38,586.21 ZM 353.64 587.18 C357.11,584.01 358.42,578.63 359.65,562.50 L 360.33 553.50 L 367.92 546.54 C384.10,531.67 390.00,524.55 390.00,519.85 C390.00,517.50 389.58,517.00 387.56,517.00 C386.22,517.00 384.84,516.55 384.50,516.00 C383.06,513.66 380.14,515.47 374.50,522.20 C363.69,535.08 359.68,539.50 358.47,539.80 C357.82,539.96 355.31,536.82 352.89,532.82 C342.75,516.03 336.78,510.29 335.31,515.91 C335.04,516.96 333.96,518.04 332.91,518.31 C329.99,519.08 330.56,521.07 336.16,529.62 C345.07,543.23 347.44,549.23 347.84,559.18 C348.07,564.75 347.62,570.37 346.59,574.89 C345.12,581.36 345.12,582.26 346.60,585.97 C347.49,588.19 348.74,590.00 349.39,590.00 C350.03,590.00 351.94,588.73 353.64,587.18 ZM 662.15 588.36 C663.62,587.03 664.25,586.96 665.47,587.97 C667.71,589.83 669.73,588.56 670.46,584.82 C671.18,581.09 675.82,569.17 677.29,567.25 C678.55,565.60 682.39,565.69 688.36,567.50 C695.13,569.55 708.52,570.59 709.42,569.13 C710.80,566.89 711.87,568.11 714.48,574.96 C718.74,586.09 723.88,592.36 726.01,589.00 C726.53,588.17 726.72,586.74 726.43,585.81 C726.14,584.88 726.44,583.26 727.10,582.21 C728.09,580.62 727.60,578.44 724.15,569.27 C721.87,563.21 720.00,557.73 720.00,557.08 C720.00,555.09 710.40,531.86 706.75,525.00 C703.56,519.02 702.92,518.40 698.60,517.18 C694.39,515.99 693.63,516.04 691.09,517.68 C685.84,521.07 679.89,529.23 674.71,540.14 L 669.55 551.00 L 665.90 551.00 C661.65,551.00 659.11,553.22 660.89,555.37 C661.52,556.13 661.75,557.50 661.40,558.41 C661.03,559.37 661.50,560.89 662.50,562.00 C663.46,563.07 664.02,564.74 663.74,565.72 C663.46,566.70 662.03,571.55 660.57,576.50 C658.20,584.54 657.84,590.00 659.69,590.00 C660.05,590.00 661.16,589.26 662.15,588.36 ZM 116.75 587.58 C127.03,584.84 131.90,580.35 132.67,572.86 C133.34,566.44 129.88,560.25 123.80,556.96 C121.21,555.57 118.79,554.12 118.41,553.75 C118.04,553.37 119.12,551.49 120.81,549.56 C124.91,544.90 126.22,539.94 124.91,534.10 C121.85,520.44 109.26,515.60 88.10,519.96 C71.80,523.31 67.74,525.67 73.75,528.30 C75.26,528.96 76.54,530.06 76.60,530.75 C76.65,531.44 76.77,532.45 76.85,533.00 C76.93,533.55 78.35,534.00 80.00,534.00 L 83.00 534.00 L 83.05 544.75 C83.08,550.66 83.46,558.88 83.89,563.00 C84.95,573.16 84.34,577.68 81.81,578.34 C79.18,579.03 79.80,582.09 82.89,583.63 C84.20,584.29 85.55,585.24 85.89,585.75 C87.48,588.14 91.23,588.94 101.00,588.96 C106.89,588.97 113.81,588.36 116.75,587.58 ZM 300.00 585.45 C313.18,578.38 313.14,563.16 299.91,556.46 C297.21,555.09 295.00,553.81 295.00,553.62 C295.00,553.43 296.34,551.58 297.99,549.52 C302.07,544.38 303.17,539.90 301.86,533.78 C299.98,525.03 293.49,519.93 282.35,518.45 C273.86,517.33 249.23,522.63 248.22,525.80 C247.98,526.54 249.13,527.60 250.90,528.27 C253.12,529.11 254.00,530.09 254.00,531.72 C254.00,533.59 254.54,534.00 257.00,534.00 L 260.00 534.00 L 260.03 543.25 C260.04,548.34 260.46,556.69 260.95,561.81 C261.98,572.37 261.41,578.00 259.34,578.00 C257.35,578.00 256.55,580.75 258.01,582.51 C258.69,583.33 260.09,584.00 261.12,584.00 C262.16,584.00 263.00,584.65 263.00,585.45 C263.00,588.45 266.34,589.08 280.50,588.73 C293.77,588.41 294.79,588.24 300.00,585.45 ZM 445.82 587.78 C446.49,587.11 448.05,586.54 449.27,586.53 C451.38,586.50 451.49,586.13 451.28,579.68 C451.15,575.94 450.33,569.19 449.45,564.68 C447.58,555.14 445.02,535.91 445.01,531.34 L 445.00 528.17 L 452.25 527.50 C456.24,527.13 462.27,526.75 465.65,526.66 C474.83,526.42 478.85,522.03 473.64,517.93 C471.48,516.23 468.74,516.05 441.39,515.79 L 411.50 515.50 L 411.47 520.37 C411.44,526.31 412.02,526.63 424.25,527.54 L 433.00 528.18 L 433.05 533.84 C433.14,544.62 438.95,583.18 441.09,587.17 C442.22,589.29 444.07,589.53 445.82,587.78 ZM 625.02 572.29 C628.23,564.48 631.11,555.81 631.42,553.04 C631.73,550.26 632.61,546.48 633.38,544.63 C635.36,539.88 639.01,524.68 639.59,518.71 C640.15,513.01 639.33,508.00 637.84,508.00 C637.29,508.00 635.09,509.88 632.96,512.17 C630.03,515.31 628.79,517.72 627.93,521.92 C624.86,537.03 616.61,564.41 614.38,566.91 C613.89,567.46 610.00,563.91 610.00,562.92 C610.00,562.49 607.04,555.92 603.43,548.32 C599.82,540.72 595.49,531.35 593.81,527.50 C592.13,523.65 590.31,519.94 589.76,519.25 C588.15,517.24 586.27,517.80 585.59,520.50 C585.18,522.11 584.26,523.00 582.98,523.00 C581.70,523.00 581.00,523.67 581.00,524.90 C581.00,529.08 587.71,544.81 595.63,559.18 C600.23,567.53 604.00,574.76 604.00,575.25 C604.00,575.73 605.17,578.59 606.60,581.61 L 609.19 587.10 L 614.19 586.80 L 619.19 586.50 L 625.02 572.29 ZM 438.50 469.58 C459.78,466.32 479.89,458.96 496.00,448.54 C511.60,438.45 525.18,424.15 532.20,410.45 C536.18,402.67 536.56,402.26 540.92,401.10 C552.98,397.87 575.72,384.51 594.83,369.43 C614.47,353.93 653.44,316.60 668.89,298.50 C671.71,295.20 675.95,290.48 678.33,288.00 C685.11,280.94 703.05,259.50 707.85,252.72 C712.04,246.81 712.19,246.33 711.82,240.44 C711.34,233.02 706.61,222.68 701.46,217.82 C699.56,216.03 698.00,214.10 698.00,213.53 C698.00,210.86 719.96,193.56 732.88,186.05 C742.46,180.48 747.57,175.79 750.63,169.74 C755.44,160.25 754.30,150.49 748.00,147.24 C745.11,145.75 738.01,146.43 733.81,148.60 C730.36,150.38 728.64,150.39 729.32,148.60 C729.62,147.83 733.34,142.32 737.59,136.35 C747.04,123.08 748.95,119.03 748.98,112.20 C749.02,102.65 744.42,98.14 735.82,99.30 C729.91,100.09 724.31,104.45 718.17,113.04 C711.92,121.80 704.04,130.88 703.91,129.48 C703.86,128.94 703.75,126.17 703.66,123.32 C703.44,116.22 700.79,112.79 694.60,111.57 C690.43,110.75 689.25,110.95 684.46,113.30 C679.13,115.91 674.08,121.38 671.78,127.00 C671.22,128.38 669.69,134.68 668.39,141.00 C664.89,157.90 656.94,180.68 653.87,182.58 C653.39,182.88 650.22,181.41 646.83,179.31 C641.13,175.79 639.99,175.47 632.03,175.16 C619.41,174.66 616.43,175.76 609.05,183.68 L 602.83 190.36 L 598.17 185.31 C592.97,179.69 587.61,176.59 581.28,175.54 C577.50,174.91 577.01,174.51 576.60,171.67 C571.14,133.95 561.12,110.68 539.80,86.27 C517.04,60.21 484.54,41.59 449.50,34.54 C410.24,26.64 363.69,34.55 331.10,54.67 C304.46,71.12 281.75,95.94 269.94,121.51 C263.06,136.40 257.00,158.60 257.00,168.92 C257.00,173.60 255.52,175.46 250.51,177.05 C244.38,178.99 236.44,187.69 234.40,194.69 C231.17,205.79 235.60,219.50 244.47,225.87 C248.60,228.83 257.97,232.00 262.61,232.00 C264.17,232.00 265.12,232.91 265.91,235.16 C266.51,236.90 266.80,238.53 266.55,238.78 C266.30,239.03 264.16,239.09 261.80,238.91 C250.82,238.06 235.35,238.80 231.12,240.37 C228.72,241.27 226.29,242.00 225.73,242.00 C225.06,242.00 224.91,238.89 225.28,233.16 C225.88,223.79 224.77,207.00 222.95,198.26 C222.09,194.13 221.45,193.00 219.95,193.00 C217.41,193.00 208.09,204.39 203.52,213.08 C201.55,216.85 199.51,220.18 199.00,220.50 C198.49,220.81 197.20,219.37 196.13,217.29 C192.08,209.40 176.61,194.70 169.53,192.01 C167.31,191.17 166.95,191.36 166.37,193.65 C164.69,200.34 167.57,217.35 172.23,228.28 C173.35,230.91 174.07,233.27 173.81,233.52 C173.56,233.77 168.66,233.47 162.93,232.84 C154.83,231.95 150.88,231.97 145.25,232.94 C141.26,233.62 138.00,234.62 138.00,235.15 C138.00,238.24 159.77,257.46 169.75,263.18 C172.64,264.84 175.00,266.56 175.00,267.01 C175.00,267.46 172.64,269.70 169.75,272.00 C155.56,283.26 148.00,298.56 148.00,316.00 C148.00,324.61 150.05,333.60 153.36,339.52 C157.44,346.84 168.23,358.99 177.94,367.23 C210.51,394.85 242.95,407.21 265.50,400.59 C273.11,398.35 277.08,395.93 284.19,389.20 C289.95,383.74 292.00,383.27 292.00,387.38 C292.00,390.55 296.13,402.34 299.75,409.50 C314.91,439.51 352.20,463.52 393.00,469.53 C404.57,471.23 427.56,471.26 438.50,469.58 ZM 46.47 407.58 C48.47,406.74 50.95,404.46 52.48,402.04 C53.91,399.77 56.21,397.49 57.60,396.96 C61.99,395.29 75.71,395.93 100.67,398.97 C126.47,402.10 129.23,402.01 133.66,397.85 C135.34,396.28 136.00,394.55 136.00,391.76 C136.00,386.74 134.70,384.41 130.75,382.37 C126.87,380.36 113.52,380.86 88.50,383.94 C79.70,385.02 69.02,386.22 64.77,386.59 L 57.03 387.27 L 52.77 382.74 C47.33,376.96 45.34,376.00 38.82,376.00 C28.03,376.00 16.00,384.39 16.00,391.89 C16.00,403.56 33.96,412.80 46.47,407.58 ZM 773.50 402.90 C777.90,402.33 781.93,401.44 782.45,400.93 C783.72,399.69 784.42,399.77 768.01,399.10 C755.63,398.59 753.48,398.26 753.21,396.85 C752.93,395.39 754.52,395.15 766.90,394.85 C780.25,394.52 784.81,393.48 782.60,391.27 C782.18,390.85 775.46,390.27 767.67,390.00 C755.96,389.59 753.50,389.24 753.50,388.00 C753.50,386.75 755.84,386.45 767.48,386.22 C781.84,385.93 785.64,384.97 780.41,382.95 C777.18,381.70 751.35,380.03 747.16,380.80 C745.70,381.07 742.81,382.80 740.75,384.64 C738.68,386.49 736.58,388.00 736.08,388.00 C735.58,388.00 726.92,386.87 716.84,385.48 C687.82,381.49 671.35,380.36 665.58,381.98 C656.05,384.65 653.91,395.56 661.99,400.33 C665.64,402.49 670.80,402.43 691.00,400.00 C731.43,395.14 736.32,395.17 741.41,400.26 C743.03,401.87 745.28,403.60 746.42,404.09 C748.69,405.08 760.89,404.54 773.50,402.90 ZM 194.48 557.53 C186.87,555.87 181.00,553.44 181.00,551.95 C181.00,550.23 187.70,537.95 190.53,534.50 C192.54,532.04 193.29,531.70 194.74,532.59 C196.58,533.74 205.92,554.22 205.97,557.25 C206.01,559.36 203.21,559.43 194.48,557.53 ZM 695.86 557.49 C688.78,556.08 683.00,553.59 683.00,551.95 C683.00,548.27 694.37,530.49 696.06,531.53 C698.05,532.76 708.00,554.92 708.00,558.12 C708.00,559.30 703.89,559.09 695.86,557.49 ZM 96.75 577.42 C95.88,576.54 95.77,567.47 96.59,564.40 C97.20,562.12 97.00,562.13 107.99,564.01 C115.39,565.28 118.84,566.73 120.40,569.25 C121.81,571.51 120.34,573.98 116.41,575.97 C113.29,577.55 98.00,578.68 96.75,577.42 ZM 99.33 550.21 C96.57,549.79 96.19,548.69 95.37,538.85 L 94.69 530.76 L 101.77 531.16 C110.17,531.63 113.00,533.51 113.00,538.62 C113.00,544.51 105.23,551.10 99.33,550.21 ZM 273.75 577.43 C272.85,576.52 272.79,570.90 273.62,565.89 C274.30,561.78 274.28,561.78 287.08,564.45 C297.99,566.72 300.86,570.80 294.75,575.34 C292.62,576.93 290.07,577.47 283.25,577.79 C278.44,578.02 274.16,577.86 273.75,577.43 ZM 272.52 541.43 C272.13,536.17 272.08,531.59 272.41,531.26 C272.75,530.92 275.55,530.71 278.64,530.80 C284.78,530.96 288.63,532.84 289.93,536.31 C292.12,542.19 283.56,551.00 275.65,551.00 C273.32,551.00 273.21,550.68 272.52,541.43 ZM 400.01 460.92 C388.30,459.60 376.83,456.74 364.25,452.00 C337.23,441.82 317.22,424.41 306.44,401.72 C300.67,389.56 298.25,370.18 300.94,357.60 C303.22,346.94 313.85,329.25 324.51,318.38 L 330.81 311.95 L 340.91 317.10 C346.85,320.13 351.00,322.85 351.00,323.73 C351.00,326.18 356.90,332.86 361.34,335.44 C367.04,338.75 381.66,342.75 392.50,343.97 C404.19,345.29 427.48,345.28 439.79,343.96 C449.60,342.90 465.03,339.07 470.17,336.41 C474.42,334.22 479.74,328.46 480.44,325.31 C480.96,322.92 482.57,321.78 491.12,317.68 L 501.19 312.85 L 508.34 319.68 C516.93,327.86 520.99,333.56 526.29,344.88 L 530.28 353.38 L 528.57 365.94 C527.63,372.85 526.72,379.25 526.55,380.17 C526.37,381.08 526.63,385.75 527.11,390.55 C527.99,399.21 527.98,399.29 524.82,404.88 C510.53,430.10 490.22,445.35 456.51,456.15 C442.66,460.59 416.61,462.79 400.01,460.92 ZM 439.50 445.47 C455.85,442.62 473.27,435.96 484.72,428.19 C515.91,407.01 526.59,375.80 512.29,347.58 C507.75,338.64 497.85,326.55 495.65,327.28 C495.09,327.47 494.00,329.51 493.23,331.80 C490.54,339.88 480.48,347.91 467.24,352.57 C452.34,357.81 446.54,358.49 416.50,358.49 C397.16,358.49 386.64,358.09 382.50,357.19 C357.71,351.78 344.08,343.64 339.42,331.42 C338.49,328.99 337.16,327.00 336.46,327.00 C333.30,327.00 321.24,344.46 317.46,354.50 C306.52,383.57 323.78,416.89 358.90,434.47 C382.67,446.37 411.66,450.33 439.50,445.47 ZM 530.67 331.71 C527.69,326.65 517.31,313.45 513.64,310.08 C512.19,308.74 511.00,307.32 511.00,306.92 C511.00,306.52 513.75,304.15 517.12,301.65 C537.66,286.39 554.66,264.62 565.26,240.01 C567.27,235.35 569.41,231.36 570.02,231.16 C570.63,230.96 573.12,231.09 575.56,231.46 L 579.99 232.12 L 578.48 235.03 C577.66,236.63 577.06,238.29 577.17,238.72 C577.27,239.15 573.20,247.82 568.12,258.00 C554.34,285.62 542.83,312.61 538.43,327.62 C537.44,330.99 535.85,334.24 534.89,334.84 C533.42,335.76 532.76,335.27 530.67,331.71 ZM 305.00 314.14 C305.00,308.72 304.72,302.20 304.37,299.66 C303.60,294.06 305.56,292.57 309.20,295.98 C310.46,297.17 313.64,299.78 316.25,301.78 C318.86,303.78 321.00,305.90 321.00,306.50 C321.00,307.09 318.98,309.56 316.52,311.98 C314.06,314.40 312.27,316.60 312.54,316.87 C313.13,317.47 306.96,324.00 305.80,324.00 C305.36,324.00 305.00,319.56 305.00,314.14 ZM 162.12 304.37 C159.38,302.45 159.37,298.41 162.09,296.95 C164.58,295.62 168.56,296.41 169.32,298.39 C171.01,302.80 165.92,307.03 162.12,304.37 ZM 218.20 298.80 C215.40,295.99 217.51,291.00 221.50,291.00 C224.18,291.00 226.00,292.82 226.00,295.50 C226.00,298.18 224.18,300.00 221.50,300.00 C220.35,300.00 218.86,299.46 218.20,298.80 ZM 193.00 288.00 C191.90,286.90 191.00,285.39 191.00,284.65 C191.00,282.92 194.22,280.00 196.13,280.00 C200.06,280.00 201.59,287.08 198.07,288.96 C195.49,290.35 195.31,290.31 193.00,288.00 ZM 224.00 272.00 C221.35,269.35 221.48,267.39 224.43,265.45 C226.33,264.21 227.33,264.10 228.93,264.96 C231.67,266.43 231.75,271.53 229.07,272.96 C226.49,274.35 226.31,274.31 224.00,272.00 ZM 681.67 260.33 C681.30,259.97 681.00,258.45 681.00,256.96 C681.00,244.84 701.56,225.35 702.82,236.27 C703.87,245.36 686.48,265.14 681.67,260.33 ZM 252.57 257.07 C249.30,253.46 252.32,249.11 257.23,250.34 C260.40,251.14 261.29,253.27 259.81,256.51 C258.44,259.53 255.03,259.80 252.57,257.07 ZM 408.02 420.25 C400.90,412.93 394.50,401.98 393.43,395.28 C392.63,390.30 394.38,384.55 397.30,382.50 C398.48,381.68 401.29,381.00 403.54,381.00 C408.16,381.00 411.35,383.67 414.71,390.36 L 416.65 394.21 L 419.93 389.11 C424.57,381.87 428.30,379.00 433.05,379.00 C436.38,379.00 437.18,379.44 438.51,382.03 C439.82,384.56 439.90,386.05 438.98,391.11 C437.75,397.88 437.30,399.13 431.88,410.61 C427.35,420.19 421.29,427.00 417.29,427.00 C415.25,427.00 412.94,425.31 408.02,420.25 Z" fill="rgb(254,254,254)"/>
</g>
</svg>